<?xml version="1.0" encoding="utf-8"?>
<!-- Generator: Adobe Illustrator 18.1.1, SVG Export Plug-In . SVG Version: 6.00 Build 0)  -->
<svg version="1.1" id="Calque_1" xmlns="http://www.w3.org/2000/svg" xmlns:xlink="http://www.w3.org/1999/xlink" x="0px" y="0px"
	 viewBox="0 0 192 196.7" enable-background="new 0 0 192 196.7" xml:space="preserve">
<path fill="none" stroke="#235182" stroke-miterlimit="10" d="M54.8,90c0,0-3.5,75-2.8,79.2c0,0,52,1.5,79.2-2V90
	C131.2,90,78.8,88.5,54.8,90z"/>
<rect x="64.2" y="125.8" fill="none" stroke="#235182" stroke-miterlimit="10" width="12.8" height="6.7"/>
<rect x="66.2" y="136.8" fill="none" stroke="#235182" stroke-miterlimit="10" width="8.2" height="6.7"/>
<rect x="66.2" y="148.4" fill="none" stroke="#235182" stroke-miterlimit="10" width="8.2" height="6.7"/>
<rect x="66.2" y="159.5" fill="none" stroke="#235182" stroke-miterlimit="10" width="8.2" height="6.7"/>
<rect x="88.5" y="136.8" fill="none" stroke="#235182" stroke-miterlimit="10" width="8.2" height="6.7"/>
<rect x="88.5" y="148.4" fill="none" stroke="#235182" stroke-miterlimit="10" width="8.2" height="6.7"/>
<rect x="88.5" y="159.5" fill="none" stroke="#235182" stroke-miterlimit="10" width="8.2" height="6.7"/>
<rect x="111.2" y="137.1" fill="none" stroke="#235182" stroke-miterlimit="10" width="8.2" height="6.7"/>
<rect x="111.2" y="148.7" fill="none" stroke="#235182" stroke-miterlimit="10" width="8.2" height="17.4"/>
<rect x="86.2" y="125.8" fill="none" stroke="#235182" stroke-miterlimit="10" width="12.8" height="6.7"/>
<rect x="108.8" y="125.8" fill="none" stroke="#235182" stroke-miterlimit="10" width="12.8" height="6.7"/>
<rect x="64.2" y="97" fill="none" stroke="#235182" stroke-miterlimit="10" width="59" height="19.1"/>
<path fill="#FFFFFF" stroke="#235182" stroke-miterlimit="10" d="M68,57c8.6,6.7-1.9,49.1-1.9,49.1s35,1.3,53.2,0
	c0,0,14.2-42.6-4.5-53.1c0,0-4.4-2.4-5.8-2.8l0.6-44.9h-59c0,0-13.9,73.1,4,84.1l1-34.3C55.7,55.2,61.3,51.9,68,57z"/>
<line fill="none" stroke="#235182" stroke-miterlimit="10" x1="58" y1="14.3" x2="103.7" y2="14.3"/>
<line fill="none" stroke="#235182" stroke-miterlimit="10" x1="78.3" y1="23.3" x2="103.7" y2="23.3"/>
<line fill="none" stroke="#235182" stroke-miterlimit="10" x1="58" y1="32.3" x2="78.3" y2="32.3"/>
<line fill="none" stroke="#235182" stroke-miterlimit="10" x1="70.7" y1="41.3" x2="91" y2="41.3"/>
<line fill="none" stroke="#235182" stroke-miterlimit="10" x1="82.2" y1="32.3" x2="102.5" y2="32.3"/>
<line fill="none" stroke="#235182" stroke-miterlimit="10" x1="58" y1="41.3" x2="64.2" y2="41.3"/>
<line fill="none" stroke="#235182" stroke-miterlimit="10" x1="77.8" y1="69" x2="83.9" y2="69"/>
<line fill="none" stroke="#235182" stroke-miterlimit="10" x1="89" y1="69" x2="119.5" y2="69"/>
<line fill="none" stroke="#235182" stroke-miterlimit="10" x1="75.8" y1="58.8" x2="82" y2="58.8"/>
<line fill="none" stroke="#235182" stroke-miterlimit="10" x1="87" y1="58.8" x2="117.6" y2="58.8"/>
<line fill="none" stroke="#235182" stroke-width="0.4" stroke-miterlimit="10" x1="63" y1="48.7" x2="69.2" y2="48.7"/>
<line fill="none" stroke="#235182" stroke-width="0.4" stroke-miterlimit="10" x1="74.3" y1="48.7" x2="104.8" y2="48.7"/>
<line fill="none" stroke="#235182" stroke-miterlimit="10" x1="88.5" y1="78.3" x2="119.5" y2="78.3"/>
<line fill="none" stroke="#235182" stroke-miterlimit="10" x1="78.3" y1="87.7" x2="95" y2="87.7"/>
<line fill="none" stroke="#235182" stroke-miterlimit="10" x1="98.9" y1="87.7" x2="118.8" y2="87.7"/>
<line fill="none" stroke="#235182" stroke-miterlimit="10" x1="73.8" y1="97" x2="119.5" y2="97"/>
<path fill="#235182" stroke="#FFFFFF" stroke-miterlimit="10" d="M55.1,53.1l-1.9,53.5l14-0.5C67.1,106.1,87.9,43,55.1,53.1z"/>
<line fill="none" stroke="#235182" stroke-miterlimit="10" x1="138.2" y1="128" x2="151.5" y2="140.4"/>
<line fill="none" stroke="#235182" stroke-miterlimit="10" x1="154.2" y1="142.5" x2="160.8" y2="148.4"/>
<line fill="none" stroke="#235182" stroke-miterlimit="10" x1="137.2" y1="136.2" x2="143.8" y2="142.1"/>
<line fill="none" stroke="#235182" stroke-miterlimit="10" x1="147.1" y1="145.5" x2="153.7" y2="151.4"/>
<line fill="none" stroke="#235182" stroke-miterlimit="10" x1="134.9" y1="156.5" x2="141.6" y2="162.4"/>
<line fill="none" stroke="#235182" stroke-miterlimit="10" x1="118.4" y1="171.7" x2="125" y2="177.6"/>
<line fill="none" stroke="#235182" stroke-miterlimit="10" x1="110" y1="173.5" x2="116.6" y2="179.4"/>
<line fill="none" stroke="#235182" stroke-miterlimit="10" x1="133.9" y1="143.6" x2="147.1" y2="156"/>
<path fill="none" stroke="#235182" stroke-miterlimit="10" d="M77.1,169.6l9.6,11.4L99,169.6l20.5,21.4l52.2-49
	c0,0-24.5-29-40.4-33.3"/>
<polyline fill="none" stroke="#235182" stroke-miterlimit="10" points="52.5,143.4 25.7,102 49,81.6 "/>
<line fill="none" stroke="#235182" stroke-miterlimit="10" x1="33.5" y1="105.2" x2="39.1" y2="100.2"/>
<line fill="none" stroke="#235182" stroke-miterlimit="10" x1="41.2" y1="98.3" x2="45.8" y2="93.7"/>
<line fill="none" stroke="#235182" stroke-miterlimit="10" x1="41.4" y1="118.6" x2="47" y2="113.6"/>
<line fill="none" stroke="#235182" stroke-miterlimit="10" x1="45.6" y1="125.8" x2="51.2" y2="120.8"/>
<line fill="none" stroke="#235182" stroke-miterlimit="10" x1="38.6" y1="111.2" x2="52.5" y2="97"/>
<text transform="matrix(0.8924 -0.4513 0.4513 0.8924 154.031 105.3058)" fill="#235182" font-family="'Helvetica-Light'" font-size="10.9824">$</text>
<text transform="matrix(0.8924 -0.4513 0.4513 0.8924 35.2646 164.5855)" fill="#235182" font-family="'Helvetica-Light'" font-size="10.9824">$</text>
<text transform="matrix(1 0 0 1 28.6716 80.2028)" fill="none" stroke="#8EA6BC" stroke-width="0.7309" stroke-miterlimit="10" font-family="'HelveticaNeue-UltraLight'" font-size="7">+</text>
<text transform="matrix(1 0 0 1 28.6714 59.7028)" fill="none" stroke="#8EA6BC" stroke-width="0.7309" stroke-miterlimit="10" font-family="'HelveticaNeue-UltraLight'" font-size="7">+</text>
<text transform="matrix(1 0 0 1 4.7964 56.0433)" fill="none" stroke="#8EA6BC" stroke-width="0.7309" stroke-miterlimit="10" font-family="'HelveticaNeue-UltraLight'" font-size="7">+</text>
<text transform="matrix(1 0 0 1 9.7964 85.0433)" fill="none" stroke="#8EA6BC" stroke-width="0.7309" stroke-miterlimit="10" font-family="'HelveticaNeue-UltraLight'" font-size="7">+</text>
<text transform="matrix(1 0 0 1 8.463 108.6665)" fill="none" stroke="#8EA6BC" stroke-width="0.7309" stroke-miterlimit="10" font-family="'HelveticaNeue-UltraLight'" font-size="7">+</text>
<text transform="matrix(1 0 0 1 20.463 132.4996)" fill="none" stroke="#8EA6BC" stroke-width="0.7309" stroke-miterlimit="10" font-family="'HelveticaNeue-UltraLight'" font-size="7">+</text>
<text transform="matrix(1 0 0 1 16.1297 155.1037)" fill="none" stroke="#8EA6BC" stroke-width="0.7309" stroke-miterlimit="10" font-family="'HelveticaNeue-UltraLight'" font-size="7">+</text>
<text transform="matrix(1 0 0 1 96.6782 184.7704)" fill="none" stroke="#8EA6BC" stroke-width="0.7309" stroke-miterlimit="10" font-family="'HelveticaNeue-UltraLight'" font-size="7">+</text>
<text transform="matrix(1 0 0 1 167.415 118.6249)" fill="none" stroke="#8EA6BC" stroke-width="0.7309" stroke-miterlimit="10" font-family="'HelveticaNeue-UltraLight'" font-size="7">+</text>
<text transform="matrix(1 0 0 1 183.415 76.441)" fill="none" stroke="#8EA6BC" stroke-width="0.7309" stroke-miterlimit="10" font-family="'HelveticaNeue-UltraLight'" font-size="7">+</text>
<text transform="matrix(1 0 0 1 134.9375 57.1076)" fill="none" stroke="#8EA6BC" stroke-width="0.7309" stroke-miterlimit="10" font-family="'HelveticaNeue-UltraLight'" font-size="7">+</text>
<text transform="matrix(1 0 0 1 119.5117 39.441)" fill="none" stroke="#8EA6BC" stroke-width="0.7309" stroke-miterlimit="10" font-family="'HelveticaNeue-UltraLight'" font-size="7">+</text>
<text transform="matrix(1 0 0 1 115.25 13.1076)" fill="none" stroke="#8EA6BC" stroke-width="0.7309" stroke-miterlimit="10" font-family="'HelveticaNeue-UltraLight'" font-size="7">+</text>
<text transform="matrix(1 0 0 1 137.1825 25.7743)" fill="none" stroke="#8EA6BC" stroke-width="0.7309" stroke-miterlimit="10" font-family="'HelveticaNeue-UltraLight'" font-size="7">+</text>
<text transform="matrix(1 0 0 1 158.1309 44.1076)" fill="none" stroke="#8EA6BC" stroke-width="0.7309" stroke-miterlimit="10" font-family="'HelveticaNeue-UltraLight'" font-size="7">+</text>
<circle fill="none" stroke="#235182" stroke-miterlimit="10" cx="36.1" cy="159.5" r="8.1"/>
<circle fill="none" stroke="#235182" stroke-miterlimit="10" cx="36.3" cy="159.5" r="5.7"/>
<circle fill="none" stroke="#235182" stroke-miterlimit="10" cx="155.2" cy="100.2" r="8.1"/>
<circle fill="none" stroke="#235182" stroke-miterlimit="10" cx="155.2" cy="100.2" r="5.7"/>
<g>
	<g>
		<rect x="131.1" y="76" fill="none" stroke="#235182" stroke-width="0.9024" stroke-miterlimit="10" width="25.4" height="6.6"/>
	</g>
	<rect x="141.1" y="76" fill="#8EA6BC" stroke="#235182" stroke-width="0.7309" stroke-miterlimit="10" width="4.3" height="6.6"/>
</g>
</svg>
