<?xml version="1.0" encoding="utf-8"?>
<!-- Generator: Adobe Illustrator 18.1.1, SVG Export Plug-In . SVG Version: 6.00 Build 0)  -->
<svg version="1.1" xmlns="http://www.w3.org/2000/svg" xmlns:xlink="http://www.w3.org/1999/xlink" x="0px" y="0px"
	 viewBox="0 0 250 250" enable-background="new 0 0 250 250" xml:space="preserve">
<g id="Coffre">
	<g>
		<path fill="none" stroke="#235182" stroke-miterlimit="10" d="M187.6,161.7H89.9c-6.6,0-12-5.4-12-12v-100c0-6.6,5.4-12,12-12
			h97.7c6.6,0,12,5.4,12,12v100C199.6,156.3,194.2,161.7,187.6,161.7z"/>
		<path fill="none" stroke="#235182" stroke-miterlimit="10" d="M164.1,161.7c0,0-0.5,16.6,1.8,16.1c0,0,6.9-6,7.8-16.1H164.1z"/>
		<path fill="none" stroke="#235182" stroke-miterlimit="10" d="M93.2,161.7c0,0-0.5,16.6,1.8,16.1c0,0,6.9-6,7.8-16.1H93.2z"/>
		<path fill="none" stroke="#235182" stroke-miterlimit="10" d="M98.1,54.8h85.4v94.9h-82.5C100.9,149.8,108.1,78.3,98.1,54.8z"/>
		<path fill="#FFFFFF" stroke="#235182" stroke-miterlimit="10" d="M98.1,54.8c0,0-38.2,2.1-76.5,20.6c-2.6,1.2-4.3,3.7-4.7,6.5
			c-2,16.1-7,72.1,15.1,109.4c0.9,1.6,2.9,2.2,4.5,1.5c12.7-5.6,63.3-29,64.4-43"/>
		<path fill="none" stroke="#235182" stroke-miterlimit="10" d="M34.6,193"/>
		<circle fill="#8EA6BC" stroke="#235182" stroke-width="0.7309" stroke-miterlimit="10" cx="24.7" cy="114.5" r="3.5"/>
		<circle fill="#8EA6BC" stroke="#235182" stroke-width="0.7309" stroke-miterlimit="10" cx="24.7" cy="128.5" r="3.5"/>
		<circle fill="#8EA6BC" stroke="#235182" stroke-width="0.7309" stroke-miterlimit="10" cx="24.7" cy="142.4" r="3.5"/>
		<line fill="none" stroke="#235182" stroke-miterlimit="10" x1="102.9" y1="82.2" x2="183.4" y2="82.2"/>
		<line fill="none" stroke="#235182" stroke-miterlimit="10" x1="102.9" y1="108.3" x2="183.4" y2="108.3"/>
		<line fill="none" stroke="#235182" stroke-miterlimit="10" x1="102.9" y1="137.3" x2="183.4" y2="137.3"/>
	</g>
	<path fill="none" stroke="#235182" stroke-miterlimit="10" d="M18.4,78.9c0,0,38.8,30.5,15.6,114.2"/>
</g>
<g id="Billet">
	<g>
		<g>
			<rect x="121" y="130.7" fill="none" stroke="#235182" stroke-width="0.9024" stroke-miterlimit="10" width="25.4" height="6.6"/>
		</g>
		
			<rect x="131" y="130.7" fill="#8EA6BC" stroke="#235182" stroke-width="0.7309" stroke-miterlimit="10" width="4.3" height="6.6"/>
	</g>
	<g>
		<g>
			
				<rect x="146.4" y="130.7" fill="none" stroke="#235182" stroke-width="0.9024" stroke-miterlimit="10" width="25.4" height="6.6"/>
		</g>
		
			<rect x="156.4" y="130.7" fill="#8EA6BC" stroke="#235182" stroke-width="0.7309" stroke-miterlimit="10" width="4.3" height="6.6"/>
	</g>
	<g>
		<g>
			<rect x="138.7" y="125.9" fill="none" stroke="#235182" stroke-miterlimit="10" width="25.4" height="4.7"/>
		</g>
		<rect x="148.7" y="125.9" fill="#8EA6BC" stroke="#235182" stroke-miterlimit="10" width="4.3" height="4.7"/>
	</g>
	<g>
		<g>
			
				<rect x="105.6" y="31.1" fill="none" stroke="#235182" stroke-width="0.9024" stroke-miterlimit="10" width="25.4" height="6.6"/>
		</g>
		
			<rect x="115.6" y="31.1" fill="#8EA6BC" stroke="#235182" stroke-width="0.7309" stroke-miterlimit="10" width="4.3" height="6.6"/>
	</g>
	<g>
		<g>
			<rect x="131" y="31.1" fill="none" stroke="#235182" stroke-width="0.9024" stroke-miterlimit="10" width="25.4" height="6.6"/>
		</g>
		<rect x="141" y="31.1" fill="#8EA6BC" stroke="#235182" stroke-width="0.7309" stroke-miterlimit="10" width="4.3" height="6.6"/>
	</g>
	<g>
		<g>
			
				<rect x="117.6" y="24.3" fill="none" stroke="#235182" stroke-width="0.9024" stroke-miterlimit="10" width="25.4" height="6.6"/>
		</g>
		
			<rect x="127.6" y="24.3" fill="#8EA6BC" stroke="#235182" stroke-width="0.7309" stroke-miterlimit="10" width="4.3" height="6.6"/>
	</g>
	<g>
		<g>
			
				<rect x="146" y="24.3" transform="matrix(0.8188 0.5741 -0.5741 0.8188 44.6082 -86.0652)" fill="none" stroke="#235182" stroke-width="0.9024" stroke-miterlimit="10" width="25.4" height="6.6"/>
		</g>
		
			<rect x="156.1" y="24" transform="matrix(0.8188 0.5741 -0.5741 0.8188 44.3581 -85.8736)" fill="#8EA6BC" stroke="#235182" stroke-width="0.7309" stroke-miterlimit="10" width="4.3" height="6.6"/>
	</g>
	<g>
		<g>
			
				<rect x="132.5" y="75.6" fill="none" stroke="#235182" stroke-width="0.9024" stroke-miterlimit="10" width="25.4" height="6.6"/>
		</g>
		
			<rect x="142.5" y="75.6" fill="#8EA6BC" stroke="#235182" stroke-width="0.7309" stroke-miterlimit="10" width="4.3" height="6.6"/>
	</g>
	<g>
		<g>
			<rect x="135.3" y="69" fill="none" stroke="#235182" stroke-width="0.9024" stroke-miterlimit="10" width="25.4" height="6.6"/>
		</g>
		<rect x="145.3" y="69" fill="#8EA6BC" stroke="#235182" stroke-width="0.7309" stroke-miterlimit="10" width="4.3" height="6.6"/>
	</g>
	<g>
		<g>
			
				<rect x="154.1" y="68.5" transform="matrix(0.2772 0.9608 -0.9608 0.2772 187.437 -106.7304)" fill="none" stroke="#235182" stroke-miterlimit="10" width="21" height="5.5"/>
		</g>
		
			<rect x="162.7" y="68.1" transform="matrix(0.2772 0.9608 -0.9608 0.2772 186.9499 -106.916)" fill="#8EA6BC" stroke="#235182" stroke-miterlimit="10" width="3.6" height="5.5"/>
	</g>
	<g>
		<g>
			
				<rect x="115.4" y="194.3" fill="none" stroke="#235182" stroke-width="0.9024" stroke-miterlimit="10" width="25.4" height="6.6"/>
		</g>
		
			<rect x="125.4" y="194.3" fill="#8EA6BC" stroke="#235182" stroke-width="0.7309" stroke-miterlimit="10" width="4.3" height="6.6"/>
	</g>
	<g>
		<g>
			
				<rect x="140.7" y="194.3" fill="none" stroke="#235182" stroke-width="0.9024" stroke-miterlimit="10" width="25.4" height="6.6"/>
		</g>
		
			<rect x="150.7" y="194.3" fill="#8EA6BC" stroke="#235182" stroke-width="0.7309" stroke-miterlimit="10" width="4.3" height="6.6"/>
	</g>
	<g>
		<g>
			<rect x="133" y="187.6" fill="none" stroke="#235182" stroke-width="0.9024" stroke-miterlimit="10" width="25.4" height="6.6"/>
		</g>
		
			<rect x="143" y="187.6" fill="#8EA6BC" stroke="#235182" stroke-width="0.7309" stroke-miterlimit="10" width="4.3" height="6.6"/>
	</g>
	<g>
		<g>
			<rect x="170.7" y="214" fill="none" stroke="#235182" stroke-width="0.7824" stroke-miterlimit="10" width="25.4" height="5"/>
		</g>
		<rect x="180.7" y="214" fill="#8EA6BC" stroke="#235182" stroke-width="0.6337" stroke-miterlimit="10" width="4.3" height="5"/>
	</g>
	<g>
		<g>
			<rect x="196" y="214" fill="none" stroke="#235182" stroke-width="0.7824" stroke-miterlimit="10" width="25.4" height="5"/>
		</g>
		<rect x="206" y="214" fill="#8EA6BC" stroke="#235182" stroke-width="0.6337" stroke-miterlimit="10" width="4.3" height="5"/>
	</g>
</g>
<g id="Line">
	<g>
		<line fill="none" stroke="#235182" stroke-miterlimit="10" x1="77.9" y1="178.4" x2="107.3" y2="178.4"/>
		<line fill="none" stroke="#235182" stroke-miterlimit="10" x1="109.1" y1="178.4" x2="115.4" y2="178.4"/>
	</g>
	<g>
		<line fill="none" stroke="#235182" stroke-miterlimit="10" x1="150.2" y1="178.4" x2="179.6" y2="178.4"/>
	</g>
	<g>
		<line fill="none" stroke="#235182" stroke-miterlimit="10" x1="176.2" y1="193" x2="205.6" y2="193"/>
	</g>
	<g>
		<line fill="none" stroke="#235182" stroke-miterlimit="10" x1="167.7" y1="219" x2="213" y2="219"/>
	</g>
	<g>
		<line fill="none" stroke="#235182" stroke-miterlimit="10" x1="183.6" y1="178.4" x2="198.3" y2="178.4"/>
	</g>
	<g>
		<line fill="none" stroke="#235182" stroke-miterlimit="10" x1="127" y1="180" x2="133.3" y2="180"/>
	</g>
	<g>
		<line fill="none" stroke="#235182" stroke-miterlimit="10" x1="97.8" y1="193" x2="104" y2="193"/>
	</g>
	<g>
		<line fill="none" stroke="#235182" stroke-miterlimit="10" x1="176.2" y1="201" x2="182.4" y2="201"/>
	</g>
	<g>
		<line fill="none" stroke="#235182" stroke-miterlimit="10" x1="123" y1="217.7" x2="129.2" y2="217.7"/>
	</g>
	<g>
		<line fill="none" stroke="#235182" stroke-miterlimit="10" x1="209.9" y1="193" x2="216.1" y2="193"/>
	</g>
	<g>
		<line fill="none" stroke="#235182" stroke-miterlimit="10" x1="77.9" y1="193" x2="93.2" y2="193"/>
	</g>
	<g>
		<line fill="none" stroke="#235182" stroke-miterlimit="10" x1="68.6" y1="207.7" x2="83.9" y2="207.7"/>
	</g>
	<g>
		<line fill="none" stroke="#235182" stroke-miterlimit="10" x1="99.7" y1="215.7" x2="115" y2="215.7"/>
	</g>
	<g>
		<line fill="none" stroke="#235182" stroke-miterlimit="10" x1="137.5" y1="217.7" x2="152.8" y2="217.7"/>
	</g>
	<g>
		<line fill="none" stroke="#235182" stroke-miterlimit="10" x1="99.7" y1="201" x2="173.7" y2="201"/>
	</g>
</g>
<g id="Pièce_12_">
	<g id="Pièce">
		<ellipse fill="#8EA6BC" stroke="#235182" stroke-width="0.7309" stroke-miterlimit="10" cx="111.3" cy="134.6" rx="4" ry="2.7"/>
		<ellipse fill="#8EA6BC" stroke="#235182" stroke-width="0.7309" stroke-miterlimit="10" cx="111.3" cy="131.9" rx="4" ry="2.7"/>
		<ellipse fill="#8EA6BC" stroke="#235182" stroke-width="0.7309" stroke-miterlimit="10" cx="112.5" cy="128.6" rx="4" ry="2.7"/>
		<ellipse fill="#8EA6BC" stroke="#235182" stroke-width="0.7309" stroke-miterlimit="10" cx="111.3" cy="125.9" rx="4" ry="2.7"/>
	</g>
	<g id="Pièce_1_">
		<ellipse fill="#8EA6BC" stroke="#235182" stroke-width="0.7309" stroke-miterlimit="10" cx="125" cy="105.5" rx="4" ry="2.7"/>
		<ellipse fill="#8EA6BC" stroke="#235182" stroke-width="0.7309" stroke-miterlimit="10" cx="125" cy="102.8" rx="4" ry="2.7"/>
		<ellipse fill="#8EA6BC" stroke="#235182" stroke-width="0.7309" stroke-miterlimit="10" cx="126.1" cy="99.5" rx="4" ry="2.7"/>
		<ellipse fill="#8EA6BC" stroke="#235182" stroke-width="0.7309" stroke-miterlimit="10" cx="125" cy="96.8" rx="4" ry="2.7"/>
	</g>
	<g id="Pièce_2_">
		<ellipse fill="#8EA6BC" stroke="#235182" stroke-width="0.7309" stroke-miterlimit="10" cx="133" cy="105.4" rx="4" ry="2.7"/>
		<ellipse fill="#8EA6BC" stroke="#235182" stroke-width="0.7309" stroke-miterlimit="10" cx="133" cy="102.7" rx="4" ry="2.7"/>
	</g>
	<g id="Pièce_4_">
		<ellipse fill="#8EA6BC" stroke="#235182" stroke-width="0.7309" stroke-miterlimit="10" cx="140.7" cy="105.5" rx="4" ry="2.7"/>
		<ellipse fill="#8EA6BC" stroke="#235182" stroke-width="0.7309" stroke-miterlimit="10" cx="140.7" cy="102.8" rx="4" ry="2.7"/>
	</g>
	<g id="Pièce_3_">
		<ellipse fill="#8EA6BC" stroke="#235182" stroke-width="0.7309" stroke-miterlimit="10" cx="137" cy="101.5" rx="4" ry="2.7"/>
		<ellipse fill="#8EA6BC" stroke="#235182" stroke-width="0.7309" stroke-miterlimit="10" cx="135.9" cy="98.8" rx="4" ry="2.7"/>
	</g>
	<g id="Pièce_11_">
		<ellipse fill="#8EA6BC" stroke="#235182" stroke-width="0.7309" stroke-miterlimit="10" cx="113" cy="79.9" rx="4" ry="2.7"/>
		<ellipse fill="#8EA6BC" stroke="#235182" stroke-width="0.7309" stroke-miterlimit="10" cx="113" cy="77.2" rx="4" ry="2.7"/>
		<ellipse fill="#8EA6BC" stroke="#235182" stroke-width="0.7309" stroke-miterlimit="10" cx="114.1" cy="73.9" rx="4" ry="2.7"/>
		<ellipse fill="#8EA6BC" stroke="#235182" stroke-width="0.7309" stroke-miterlimit="10" cx="113" cy="71.2" rx="4" ry="2.7"/>
	</g>
	<g id="Pièce_10_">
		<ellipse fill="#8EA6BC" stroke="#235182" stroke-width="0.7309" stroke-miterlimit="10" cx="121" cy="79.8" rx="4" ry="2.7"/>
		<ellipse fill="#8EA6BC" stroke="#235182" stroke-width="0.7309" stroke-miterlimit="10" cx="121" cy="77.1" rx="4" ry="2.7"/>
	</g>
	<g id="Pièce_5_">
		<ellipse fill="#8EA6BC" stroke="#235182" stroke-width="0.7309" stroke-miterlimit="10" cx="137" cy="96.3" rx="4" ry="2.7"/>
		<ellipse fill="#8EA6BC" stroke="#235182" stroke-width="0.7309" stroke-miterlimit="10" cx="137" cy="93.6" rx="4" ry="2.7"/>
	</g>
	<g id="Pièce_13_">
		<ellipse fill="#8EA6BC" stroke="#235182" stroke-width="0.7309" stroke-miterlimit="10" cx="196.9" cy="211.3" rx="4" ry="2.7"/>
		<ellipse fill="#8EA6BC" stroke="#235182" stroke-width="0.7309" stroke-miterlimit="10" cx="195.2" cy="208.6" rx="4" ry="2.7"/>
	</g>
	<g id="Pièce_9_">
		<ellipse fill="#8EA6BC" stroke="#235182" stroke-width="0.7309" stroke-miterlimit="10" cx="148.7" cy="105.5" rx="4" ry="2.7"/>
		<ellipse fill="#8EA6BC" stroke="#235182" stroke-width="0.7309" stroke-miterlimit="10" cx="148.7" cy="102.8" rx="4" ry="2.7"/>
	</g>
	<g id="Pièce_8_">
		<ellipse fill="#8EA6BC" stroke="#235182" stroke-width="0.7309" stroke-miterlimit="10" cx="156.4" cy="105.5" rx="4" ry="2.7"/>
		<ellipse fill="#8EA6BC" stroke="#235182" stroke-width="0.7309" stroke-miterlimit="10" cx="156.4" cy="102.8" rx="4" ry="2.7"/>
	</g>
	<g id="Pièce_6_">
		<ellipse fill="#8EA6BC" stroke="#235182" stroke-width="0.7309" stroke-miterlimit="10" cx="152.4" cy="100.2" rx="4" ry="2.7"/>
		<ellipse fill="#8EA6BC" stroke="#235182" stroke-width="0.7309" stroke-miterlimit="10" cx="151.2" cy="97.5" rx="4" ry="2.7"/>
		<ellipse fill="#8EA6BC" stroke="#235182" stroke-width="0.7309" stroke-miterlimit="10" cx="150.1" cy="94.1" rx="4" ry="2.7"/>
	</g>
	<g id="Pièce_14_">
		<ellipse fill="#8EA6BC" stroke="#235182" stroke-width="0.7309" stroke-miterlimit="10" cx="203.4" cy="211.6" rx="4" ry="2.7"/>
		<ellipse fill="#8EA6BC" stroke="#235182" stroke-width="0.7309" stroke-miterlimit="10" cx="202.3" cy="208.9" rx="4" ry="2.7"/>
		<ellipse fill="#8EA6BC" stroke="#235182" stroke-width="0.7309" stroke-miterlimit="10" cx="205.7" cy="205.6" rx="4" ry="2.7"/>
	</g>
</g>
<g id="PLUS">
	
		<text transform="matrix(1 0 0 1 81.3335 36.0003)" fill="none" stroke="#8EA6BC" stroke-width="0.7309" stroke-miterlimit="10" font-family="'HelveticaNeue-UltraLight'" font-size="7">+</text>
	
		<text transform="matrix(1 0 0 1 96.3335 50.3337)" fill="none" stroke="#8EA6BC" stroke-width="0.7309" stroke-miterlimit="10" font-family="'HelveticaNeue-UltraLight'" font-size="7">+</text>
	
		<text transform="matrix(1 0 0 1 166.1243 52.0003)" fill="none" stroke="#8EA6BC" stroke-width="0.7309" stroke-miterlimit="10" font-family="'HelveticaNeue-UltraLight'" font-size="7">+</text>
	
		<text transform="matrix(1 0 0 1 183.5622 30.9454)" fill="none" stroke="#8EA6BC" stroke-width="0.7309" stroke-miterlimit="10" font-family="'HelveticaNeue-UltraLight'" font-size="7">+</text>
	
		<text transform="matrix(1 0 0 1 205.6411 60.3554)" fill="none" stroke="#8EA6BC" stroke-width="0.7309" stroke-miterlimit="10" font-family="'HelveticaNeue-UltraLight'" font-size="7">+</text>
	
		<text transform="matrix(1 0 0 1 205.6416 89.3554)" fill="none" stroke="#8EA6BC" stroke-width="0.7309" stroke-miterlimit="10" font-family="'HelveticaNeue-UltraLight'" font-size="7">+</text>
	
		<text transform="matrix(1 0 0 1 201.6416 114.4976)" fill="none" stroke="#8EA6BC" stroke-width="0.7309" stroke-miterlimit="10" font-family="'HelveticaNeue-UltraLight'" font-size="7">+</text>
	
		<text transform="matrix(1 0 0 1 200.8898 168.1643)" fill="none" stroke="#8EA6BC" stroke-width="0.7309" stroke-miterlimit="10" font-family="'HelveticaNeue-UltraLight'" font-size="7">+</text>
	
		<text transform="matrix(1 0 0 1 135.3335 178.4383)" fill="none" stroke="#8EA6BC" stroke-width="0.7309" stroke-miterlimit="10" font-family="'HelveticaNeue-UltraLight'" font-size="7">+</text>
	
		<text transform="matrix(1 0 0 1 107.3338 197.6551)" fill="none" stroke="#8EA6BC" stroke-width="0.7309" stroke-miterlimit="10" font-family="'HelveticaNeue-UltraLight'" font-size="7">+</text>
	
		<text transform="matrix(1 0 0 1 88.0004 205.6059)" fill="none" stroke="#8EA6BC" stroke-width="0.7309" stroke-miterlimit="10" font-family="'HelveticaNeue-UltraLight'" font-size="7">+</text>
	
		<text transform="matrix(1 0 0 1 112.9541 148.2726)" fill="none" stroke="#8EA6BC" stroke-width="0.7309" stroke-miterlimit="10" font-family="'HelveticaNeue-UltraLight'" font-size="7">+</text>
	
		<text transform="matrix(1 0 0 1 130.2919 121.2726)" fill="none" stroke="#8EA6BC" stroke-width="0.7309" stroke-miterlimit="10" font-family="'HelveticaNeue-UltraLight'" font-size="7">+</text>
	
		<text transform="matrix(1 0 0 1 167.7084 96.0803)" fill="none" stroke="#8EA6BC" stroke-width="0.7309" stroke-miterlimit="10" font-family="'HelveticaNeue-UltraLight'" font-size="7">+</text>
	
		<text transform="matrix(1 0 0 1 131.8817 65.4136)" fill="none" stroke="#8EA6BC" stroke-width="0.7309" stroke-miterlimit="10" font-family="'HelveticaNeue-UltraLight'" font-size="7">+</text>
	
		<text transform="matrix(1 0 0 1 166.1241 125)" fill="none" stroke="#8EA6BC" stroke-width="0.7309" stroke-miterlimit="10" font-family="'HelveticaNeue-UltraLight'" font-size="7">+</text>
	<g>
		
			<text transform="matrix(1 0 0 1 188.4575 144.131)" fill="none" stroke="#8EA6BC" stroke-width="0.7309" stroke-miterlimit="10" font-family="'HelveticaNeue-UltraLight'" font-size="7">+</text>
	</g>
</g>
</svg>
