<?xml version="1.0" standalone="no"?>
<!DOCTYPE svg PUBLIC "-//W3C//DTD SVG 1.1//EN" "http://www.w3.org/Graphics/SVG/1.1/DTD/svg11.dtd" >
<svg xmlns="http://www.w3.org/2000/svg">
<metadata>Generated by IcoMoon</metadata>
<defs>
<font id="icomoon" horiz-adv-x="1024">
<font-face units-per-em="1024" ascent="960" descent="-64" />
<missing-glyph horiz-adv-x="1024" />
<glyph unicode="&#x20;" horiz-adv-x="512" d="" />
<glyph unicode="&#xe900;" glyph-name="doublearrow" horiz-adv-x="931" d="M785.683 409.261l-325.331-367.806c-24.061-24.061-24.061-63.225 0-87.285s63.225-24.061 87.285 0l363.267 410.527c12.276 12.276 18.047 28.36 17.923 44.44 0.124 16.080-5.647 32.288-17.923 44.564l-363.263 410.774c-24.061 23.941-63.225 23.941-87.285 0s-24.061-63.348 0-87.285l325.328-367.929zM345.445 409.261l-325.084-367.806c-24.432-24.184-24.432-63.348-0.247-87.409 23.941-24.061 63.348-24.061 87.285 0l363.263 410.651c12.276 12.276 18.17 28.36 17.923 44.44 0.124 16.080-5.647 32.288-17.923 44.564l-363.143 410.774c-24.184 23.941-63.472 23.941-87.285 0-24.184-23.941-24.184-63.348 0-87.285l325.212-367.929z" />
<glyph unicode="&#xe901;" glyph-name="Wallet" d="M1015.429 483.155h-49.112v225.919c0 54.162-44.063 98.225-98.225 98.225h-66.517l-68.070 122.388c-10.374 18.704-30.118 30.313-51.53 30.313-9.98 0-19.881-2.574-28.623-7.425l-261.239-145.274h-291.806c-54.162 0-98.225-44.063-98.225-98.225v-674.474c0-54.162 44.063-98.225 98.225-98.225h767.786c54.162 0 98.225 44.063 98.225 98.225v198.081h49.112v250.47zM868.092 768.011c30.252 0 54.966-22.983 58.285-52.392h-73.826l-29.115 52.392h44.656zM672.465 918.236c9.213 5.166 21.611 1.553 26.697-7.623l108.44-194.976h-499.492l364.354 202.599zM927.026 34.604c0-32.493-26.444-58.937-58.937-58.937h-767.783c-32.493 0-58.937 26.444-58.937 58.937v674.471c0 32.493 26.444 58.937 58.937 58.937h221.163l-94.217-52.395h-114.667c-10.864 0-19.646-8.8-19.646-19.646s8.782-19.646 19.646-19.646h814.441v-193.188h-143.663c-66.716 0-121.012-54.3-121.012-121.012v-8.449c0-66.716 54.3-121.012 121.012-121.012h143.663v-198.060zM976.138 271.973h-192.775c-45.065 0-81.724 36.656-81.724 81.724v8.449c0 45.065 36.656 81.724 81.724 81.724h192.775v-171.898zM843.535 356.308c0-23.968-19.41-43.375-43.375-43.375-23.968 0-43.375 19.41-43.375 43.375s19.41 43.375 43.375 43.375c23.968 0.003 43.375-19.425 43.375-43.375z" />
<glyph unicode="&#xe902;" glyph-name="add" d="M512-64c-77.009 0-139.636 62.022-139.636 138.263v234.1h-234.1c-76.241 0-138.263 62.627-138.263 139.636s62.022 139.636 138.263 139.636h234.1v234.1c0 76.241 62.627 138.263 139.636 138.263s139.636-62.022 139.636-138.263v-234.1h234.1c76.241 0 138.263-62.627 138.263-139.636s-62.022-139.636-138.263-139.636h-234.1v-234.1c0-76.241-62.627-138.263-139.636-138.263zM138.263 541.091c-49.711 0-91.718-42.636-91.718-93.091s42.007-93.091 91.718-93.091h280.646v-280.646c0-49.711 42.636-91.718 93.091-91.718s93.091 42.007 93.091 91.718v280.646h280.646c49.711 0 91.718 42.636 91.718 93.091s-42.007 93.091-91.718 93.091h-280.646v280.646c0 49.711-42.636 91.718-93.091 91.718s-93.091-42.007-93.091-91.718v-280.646h-280.646z" />
<glyph unicode="&#xe903;" glyph-name="Cancel" d="M512 898.56c-248.632 0-450.56-201.928-450.56-450.56s201.928-450.56 450.56-450.56c248.632 0 450.56 201.928 450.56 450.56s-201.928 450.56-450.56 450.56zM512 857.6c226.504 0 409.6-183.096 409.6-409.6s-183.096-409.6-409.6-409.6c-226.504 0-409.6 183.096-409.6 409.6s183.096 409.6 409.6 409.6zM512 816.64c-84.423 0-163.006-28.183-225.92-78.080l-17.92-14.080 520.32-520.32 14.080 17.92c49.897 62.914 78.080 141.497 78.080 225.92 0 203.551-165.089 368.64-368.64 368.64zM512 775.68c181.473 0 327.68-146.207 327.68-327.68 0-66.972-22.072-127.636-57.6-179.84l-449.92 449.92c52.204 35.528 112.868 57.6 179.84 57.6zM235.52 691.84l-14.080-17.92c-49.897-62.914-78.080-141.497-78.080-225.92 0-203.551 165.089-368.64 368.64-368.64 84.423 0 163.006 28.183 225.92 78.080l17.92 14.080-520.32 520.32zM241.92 627.84l449.92-449.92c-52.204-35.528-112.868-57.6-179.84-57.6-181.473 0-327.68 146.207-327.68 327.68 0 66.972 22.072 127.636 57.6 179.84z" />
<glyph unicode="&#xe904;" glyph-name="check" d="M970.607 802.67l-602.559-602.554-314.655 314.65-53.393-53.393 368.048-368.043 655.952 655.947z" />
<glyph unicode="&#xe905;" glyph-name="Checked" d="M225.28 878.080c-79.872 0-143.36-63.488-143.36-143.36v-573.44c0-79.872 63.488-143.36 143.36-143.36h573.44c79.872 0 143.36 63.488 143.36 143.36v491.52l-40.96-47.36v-444.16c0-57.344-45.056-102.4-102.4-102.4h-573.44c-57.344 0-102.4 45.056-102.4 102.4v573.44c0 57.344 45.056 102.4 102.4 102.4h540.8l32.64 40.96h-573.44zM885.76 801.28l-396.16-467.2-166.4 155.52-28.16-30.080 198.4-184.32 13.44 16 409.6 483.84-30.72 26.24z" />
<glyph unicode="&#xe906;" glyph-name="Delete" d="M430.080 919.040c-33.699 0-61.44-27.741-61.44-61.44v-40.96h-160c-1.251 0.271-2.687 0.427-4.16 0.427s-2.909-0.155-4.294-0.451l-36.346 0.024c-0.287 0.014-0.622 0.023-0.96 0.023s-0.673-0.008-1.007-0.024c-10.855-0.525-19.495-9.493-19.495-20.478 0-11.323 9.179-20.502 20.502-20.502 0.338 0 0.673 0.008 1.007 0.024l20.433-0.002v-737.28c0-33.699 27.741-61.44 61.44-61.44h532.48c33.699 0 61.44 27.741 61.44 61.44v737.28h20.48c0.086-0.001 0.188-0.002 0.29-0.002 11.312 0 20.482 9.17 20.482 20.482s-9.17 20.482-20.482 20.482c-0.102 0-0.203-0.001-0.305-0.002h-204.785v40.96c0 33.699-27.741 61.44-61.44 61.44h-163.84zM430.080 878.080h163.84c11.357 0 20.48-9.123 20.48-20.48v-40.96h-204.8v40.96c0 11.357 9.123 20.48 20.48 20.48zM225.28 775.68h573.44v-737.28c0-11.357-9.123-20.48-20.48-20.48h-532.48c-11.357 0-20.48 9.123-20.48 20.48v737.28zM387.2 673.92c-1.008-0.185-1.868-0.407-2.705-0.681-9.083-2.078-15.861-10.221-15.861-19.946 0-0.173 0.002-0.346 0.006-0.519l-0.001-511.974c-0.001-0.086-0.002-0.188-0.002-0.29 0-11.312 9.17-20.482 20.482-20.482s20.482 9.17 20.482 20.482c0 0.102-0.001 0.203-0.002 0.305v511.985c0.008 0.217 0.013 0.473 0.013 0.729 0 11.312-9.17 20.482-20.482 20.482-0.68 0-1.352-0.033-2.015-0.098zM510.080 673.92c-1.008-0.185-1.868-0.407-2.705-0.681-9.083-2.078-15.861-10.221-15.861-19.946 0-0.173 0.002-0.346 0.006-0.519l-0.001-511.974c-0.001-0.086-0.002-0.188-0.002-0.29 0-11.312 9.17-20.482 20.482-20.482s20.482 9.17 20.482 20.482c0 0.102-0.001 0.203-0.002 0.305v511.985c0.008 0.217 0.013 0.473 0.013 0.729 0 11.312-9.17 20.482-20.482 20.482-0.68 0-1.352-0.033-2.015-0.098zM632.96 673.92c-1.008-0.185-1.868-0.407-2.705-0.681-9.083-2.078-15.861-10.221-15.861-19.946 0-0.173 0.002-0.346 0.006-0.519l-0.001-511.974c-0.001-0.086-0.002-0.188-0.002-0.29 0-11.312 9.17-20.482 20.482-20.482s20.482 9.17 20.482 20.482c0 0.102-0.001 0.203-0.002 0.305v511.985c0.008 0.217 0.013 0.473 0.013 0.729 0 11.312-9.17 20.482-20.482 20.482-0.68 0-1.352-0.033-2.015-0.098z" />
<glyph unicode="&#xe907;" glyph-name="deÌpense" d="M1024 886.733c0 37.649-30.618 68.267-68.267 68.267h-887.467c-37.649 0-68.267-30.618-68.267-68.267 0-31.727 21.845-58.214 51.2-65.843v-828.689l51.2 51.2 102.4-102.4 102.4 102.4 102.4-102.4 102.4 102.4 102.4-102.4 102.4 102.4 102.4-102.4 102.4 102.4 51.2-51.2v828.689c29.355 7.629 51.2 34.116 51.2 65.843zM938.667 74.598l-17.067 17.067-102.4-102.4-102.4 102.4-102.4-102.4-102.4 102.4-102.4-102.4-102.4 102.4-102.4-102.4-102.4 102.4-17.067-17.067v795.068h853.333v-795.068zM972.8 857.19v46.609h-921.6v-46.609c-10.189 5.888-17.067 16.93-17.067 29.542 0 18.825 15.309 34.133 34.133 34.133h887.467c18.825 0 34.133-15.309 34.133-34.133 0-12.612-6.878-23.654-17.067-29.542zM750.933 272.333h-256c-9.421 0-17.067-7.629-17.067-17.067s7.646-17.067 17.067-17.067h256c9.421 0 17.067 7.629 17.067 17.067s-7.646 17.067-17.067 17.067zM824.149 267.383c-3.072-3.226-4.949-7.492-4.949-12.117 0-4.437 1.877-8.875 4.949-12.117 3.243-3.072 7.68-4.949 12.117-4.949s8.875 1.877 12.117 4.949c3.072 3.243 4.949 7.68 4.949 12.117 0 4.625-1.877 8.892-4.949 12.117-6.485 6.315-17.749 6.315-24.235 0zM836.267 511.266h-256c-9.421 0-17.067-7.629-17.067-17.067s7.646-17.067 17.067-17.067h256c9.421 0 17.067 7.629 17.067 17.067s-7.646 17.067-17.067 17.067zM836.267 391.799h-170.667c-9.421 0-17.067-7.629-17.067-17.067s7.646-17.067 17.067-17.067h170.667c9.421 0 17.067 7.629 17.067 17.067s-7.646 17.067-17.067 17.067zM477.867 374.733c0-9.438 7.646-17.067 17.067-17.067h34.133c9.421 0 17.067 7.629 17.067 17.067s-7.646 17.067-17.067 17.067h-34.133c-9.421 0-17.067-7.629-17.067-17.067zM768 613.666c0 9.438-7.646 17.067-17.067 17.067h-256c-9.421 0-17.067-7.629-17.067-17.067s7.646-17.067 17.067-17.067h256c9.421 0 17.067 7.629 17.067 17.067zM824.149 625.783c-3.072-3.226-4.949-7.492-4.949-12.117 0-4.437 1.877-8.875 4.949-12.117 3.243-3.072 7.68-4.949 12.117-4.949 4.608 0 8.875 1.877 12.117 4.949 3.072 3.243 4.949 7.68 4.949 12.117s-1.877 8.892-4.949 12.117c-6.315 6.315-17.92 6.315-24.235 0zM524.117 482.082c3.072 3.243 4.949 7.509 4.949 12.117 0 4.625-1.877 8.892-4.949 12.117-6.315 6.315-17.749 6.315-24.235 0-3.072-3.226-4.949-7.492-4.949-12.117 0-4.608 1.877-8.875 4.949-12.117 3.243-3.072 7.68-4.949 12.117-4.949s8.875 1.877 12.117 4.949zM609.451 362.615c3.072 3.243 4.949 7.509 4.949 12.117 0 4.625-1.877 9.045-4.949 12.117-6.315 6.315-17.749 6.315-24.235 0-3.072-3.226-4.949-7.68-4.949-12.117s1.877-8.875 4.949-12.117c3.243-3.072 7.68-4.949 12.117-4.949s8.875 1.877 12.117 4.949zM290.133 594.876v18.79c0 9.438-7.646 17.067-17.067 17.067s-17.067-7.629-17.067-17.067v-18.842c-18.62-3.789-35.584-13.67-48.094-28.467-10.428-12.322-15.258-28.092-13.551-44.425 1.741-16.708 10.342-32.205 23.603-42.513l38.042-29.594v-92.809c-19.814 7.066-34.133 25.839-34.133 48.060 0 9.438-7.646 17.067-17.067 17.067s-17.067-7.629-17.067-17.067c0-41.199 29.372-75.674 68.267-83.61v-14.985c0-9.438 7.646-17.067 17.067-17.067s17.067 7.629 17.067 17.067v15.053c18.62 3.789 35.584 13.67 48.111 28.467 10.428 12.356 15.241 28.126 13.534 44.459-1.758 16.691-10.342 32.171-23.603 42.462l-38.042 29.577v92.809c19.814-7.066 34.133-25.839 34.133-48.060 0-9.438 7.646-17.067 17.067-17.067s17.067 7.629 17.067 17.067c0 41.216-29.372 75.691-68.267 83.627zM307.217 409.975c5.956-4.625 9.83-11.605 10.615-19.081 0.734-6.997-1.28-13.705-5.649-18.859-5.939-7.014-13.619-11.93-22.050-14.933v66.185l17.084-13.312zM238.916 506.351c-5.973 4.642-9.83 11.622-10.615 19.115-0.717 6.98 1.28 13.67 5.649 18.842 5.939 7.014 13.619 11.93 22.050 14.933v-66.167l-17.084 13.278zM699.733 767.266c0-9.426-7.641-17.067-17.067-17.067s-17.067 7.641-17.067 17.067c0 9.426 7.641 17.067 17.067 17.067s17.067-7.641 17.067-17.067zM631.467 767.266c0-9.426-7.641-17.067-17.067-17.067s-17.067 7.641-17.067 17.067c0 9.426 7.641 17.067 17.067 17.067s17.067-7.641 17.067-17.067zM768 767.266c0-9.426-7.641-17.067-17.067-17.067s-17.067 7.641-17.067 17.067c0 9.426 7.641 17.067 17.067 17.067s17.067-7.641 17.067-17.067zM563.2 767.266c0-9.426-7.641-17.067-17.067-17.067s-17.067 7.641-17.067 17.067c0 9.426 7.641 17.067 17.067 17.067s17.067-7.641 17.067-17.067zM836.267 767.266c0-9.426-7.641-17.067-17.067-17.067s-17.067 7.641-17.067 17.067c0 9.426 7.641 17.067 17.067 17.067s17.067-7.641 17.067-17.067zM358.4 767.266c0-9.426-7.641-17.067-17.067-17.067s-17.067 7.641-17.067 17.067c0 9.426 7.641 17.067 17.067 17.067s17.067-7.641 17.067-17.067zM426.667 767.266c0-9.426-7.641-17.067-17.067-17.067s-17.067 7.641-17.067 17.067c0 9.426 7.641 17.067 17.067 17.067s17.067-7.641 17.067-17.067zM494.933 767.266c0-9.426-7.641-17.067-17.067-17.067s-17.067 7.641-17.067 17.067c0 9.426 7.641 17.067 17.067 17.067s17.067-7.641 17.067-17.067zM904.533 767.266c0-9.426-7.641-17.067-17.067-17.067s-17.067 7.641-17.067 17.067c0 9.426 7.641 17.067 17.067 17.067s17.067-7.641 17.067-17.067zM290.133 767.266c0-9.426-7.641-17.067-17.067-17.067s-17.067 7.641-17.067 17.067c0 9.426 7.641 17.067 17.067 17.067s17.067-7.641 17.067-17.067zM221.867 767.266c0-9.426-7.641-17.067-17.067-17.067s-17.067 7.641-17.067 17.067c0 9.426 7.641 17.067 17.067 17.067s17.067-7.641 17.067-17.067zM153.6 767.266c0-9.426-7.641-17.067-17.067-17.067s-17.067 7.641-17.067 17.067c0 9.426 7.641 17.067 17.067 17.067s17.067-7.641 17.067-17.067z" />
<glyph unicode="&#xe908;" glyph-name="downarrow" d="M861.547 270.177c13.955 14.443 13.955 37.181 0 51.625-14.443 13.955-37.702 13.955-51.625 0l-261.766-261.766v863.824c0 20.136-16.005 36.14-36.14 36.14s-36.661-16.005-36.661-36.14v-863.824l-261.245 261.766c-14.443 13.955-37.181 13.955-51.625 0-13.955-14.443-13.955-37.181 0-51.625l323.735-323.735c13.955-13.955 37.181-13.955 51.625 0l323.702 323.735z" />
<glyph unicode="&#xe909;" d="M622.14 941.173h-220.908c-13.598 0-24.476-10.878-24.476-24.476v-129.281h270.068v129.281c0 13.388-11.087 24.476-24.685 24.476z" />
<glyph unicode="&#xe90a;" d="M357.72 132.223c0-0.209 0-0.418 0-0.418 0-0.837 0.209-1.883 0.209-2.72 0-0.209 0-0.418 0.209-0.837 0.209-1.046 0.628-2.092 1.046-3.138 0.209-0.209 0.209-0.418 0.418-0.837 0.418-0.837 0.837-1.464 1.255-2.092 0.209-0.209 0.418-0.628 0.628-0.837s0.209-0.418 0.418-0.628l135.139-177.187c3.556-4.602 9.204-7.531 15.062-7.531s11.506 2.72 15.062 7.531l135.139 177.187c0.209 0.209 0.209 0.418 0.418 0.628s0.418 0.628 0.628 0.837 0.837 1.464 1.255 2.092c0.209 0.209 0.209 0.418 0.418 0.837 0.418 1.046 0.628 2.092 1.046 3.138 0 0.209 0 0.418 0.209 0.837 0.209 0.837 0.209 1.883 0.209 2.72 0 0.209 0 0.418 0 0.418v569.005c0 10.46-8.577 19.037-19.037 19.037s-19.037-8.577-19.037-19.037v-549.969h-97.066v548.923c0 10.46-8.577 19.037-19.037 19.037s-19.037-8.577-19.037-19.037v-548.923h-97.066v548.923c0 10.46-8.577 19.037-19.037 19.037s-19.037-8.577-19.037-19.037v-567.959h-0.418zM608.543 113.187l-96.856-126.771-96.856 126.98h193.713v-0.209z" />
<glyph unicode="&#xe90b;" d="M597.455 960h-171.538c-37.655 0-68.406-30.542-68.406-68.406v-104.387c0-10.46 8.577-19.037 19.037-19.037h270.068c10.46 0 19.037 8.577 19.037 19.037v104.597c0 37.655-30.542 68.197-68.197 68.197zM627.788 806.243h-232.204v85.56c0 16.735 13.598 30.333 30.333 30.333h171.538c16.735 0 30.333-13.598 30.333-30.333v-85.56z" />
<glyph unicode="&#xe90c;" glyph-name="email" d="M634.88 878.080v-57.6c-0.057-0.576-0.090-1.244-0.090-1.92s0.033-1.344 0.097-2.004l-0.007-20.396v-40.96h-286.72c-101.55 0-184.32-82.77-184.32-184.32v-327.68c0.001-11.31 9.17-20.479 20.48-20.48h389.12v-204.8h40.96v204.8h40.96v-204.8h40.96v204.8h266.24c11.31 0.001 20.479 9.17 20.48 20.48v327.68c0 101.55-82.77 184.32-184.32 184.32h-81.92v-40.96h81.92c79.411 0 143.36-63.949 143.36-143.36v-307.2h-409.6v307.2c0 57.943-27.113 109.532-69.12 143.36h171.52v-108.16c-12.224-7.087-20.48-20.053-20.48-35.2 0-22.622 18.338-40.96 40.96-40.96s40.96 18.338 40.96 40.96c0 15.147-8.256 28.113-20.48 35.2v190.080h81.92v81.92h-122.88zM348.16 714.24c79.411 0 143.36-63.949 143.36-143.36v-307.2h-286.72v307.2c0 79.411 63.949 143.36 143.36 143.36zM280.96 550.4c-10.116-1.463-17.802-10.074-17.802-20.48 0-11.422 9.259-20.682 20.682-20.682 1.016 0 2.015 0.073 2.991 0.215l122.769-0.013c0.086-0.001 0.188-0.002 0.29-0.002 11.312 0 20.482 9.17 20.482 20.482s-9.17 20.482-20.482 20.482c-0.102 0-0.203-0.001-0.305-0.002h-122.865c-0.287 0.014-0.622 0.023-0.96 0.023s-0.673-0.008-1.007-0.024c-0.24 0.016-0.575 0.024-0.913 0.024s-0.673-0.008-1.007-0.024c-0.24 0.016-0.575 0.024-0.913 0.024s-0.673-0.008-1.007-0.024z" />
<glyph unicode="&#xe90d;" glyph-name="Shape" horiz-adv-x="1331" d="M1028.794-57.606h-235.997c-9.311 0-16.855 8.112-16.855 18.124v55.147c-39.67-8.96-80.553-13.571-121.565-13.571-55.675 0-110.319 8.264-162.765 24.583v-66.158c0-10.011-7.544-18.124-16.855-18.124h-215.852c-9.311 0-16.855 8.112-16.855 18.124v235.868c-28.68 36.653-51.428 76.982-67.406 119.797h-95.925c-1.018 0-2.023 0.101-3 0.283-0.769-0.080-1.537-0.138-2.313-0.174-38.288-2.276-70.4 45.534-73.211 108.155-1.267 28.179 3.708 55.27 14.003 76.271 9.29 18.957 22.1 31.564 36.852 36.573 2.286 1.305 4.827 2.037 7.443 2.037h1.267c1.2 0.152 2.407 0.268 3.627 0.333v0c2.818 0.152 5.603 0.029 8.347-0.333h81.908c15.068 96.787 46.284 160.807 107.98 221.833l-25.62 117.427c-1.51 6.923 0.883 14.151 6.122 18.493 5.232 4.35 12.351 4.988 18.183 1.66l95.271-54.32c83.547 57.655 184.009 86.863 298.798 86.863 264.144 0 481.749-186.144 504.881-422.81 13.666 6.082 33.521 17.304 54.024 37.081 36.535 35.261 43.331 75.764 43.391 76.17 1.564 9.867 10.261 16.493 19.451 14.811 9.176-1.682 15.345-11.041 13.774-20.915-0.344-2.16-8.926-53.443-54.104-97.041-29.624-28.577-58.264-42.105-74.519-48.035 0.007-1.283 0.013-2.574 0.013-3.857 0-107.756-41.012-212.351-115.645-295.343v-210.836c0.007-10.004-7.544-18.116-16.848-18.116v0zM900.804-21.359h111.135v200.121c0 4.799 1.773 9.403 4.922 12.803 71.398 76.982 110.724 174.697 110.724 275.131 0 236.194-212.278 428.348-473.207 428.348-111.533 0-208.348-28.991-287.748-86.167l-75.335-67.761c-64.096-60.852-92.979-121.175-106.523-222.486-1.193-8.917-8.299-15.55-16.686-15.55h-50.457c10.841-18.928 17.846-43.866 19.093-71.574 1.369-30.498-4.517-58.387-15.486-79.077h135.393c0.283 0 0.566-0.007 0.856-0.022 1.119-0.094 31.431-0.964 52.844 24.931 3.088 3.733 7.463 5.923 12.102 6.075 4.638 0.304 9.129-1.769 12.412-5.299l17.327-18.631c6.58-7.083 6.58-18.559 0-25.627-6.594-7.083-17.259-7.075-23.84 0l-5.818 6.256c-28.674-24.141-61.285-24.104-66.173-23.93h-45.084c26.887-64.73 71.020-122.914 128.779-169.456 4.247-3.429 6.742-8.801 6.742-14.506v-153.587h111.135v72.661c0 5.829 2.609 11.302 7.005 14.702 4.396 3.414 10.059 4.35 15.19 2.487 55.702-20.008 114.331-30.15 174.28-30.15 77.533 0 154.526 17.435 222.647 50.413 5.205 2.53 11.259 2.037 16.073-1.305 4.8-3.342 7.706-9.069 7.706-15.224v-93.576h-0.007zM809.652-21.359h57.442v66.289c-18.669-7.902-37.863-14.745-57.442-20.509v-45.78zM275.761-21.359h37.297v144.612c-13.12 10.961-25.566 22.495-37.297 34.551v-179.163zM36.252 405.481c6.075-32.13 21.736-53.653 35.53-52.993 0.755 0.043 1.51 0.152 2.265 0.326 0.175 0.051 0.357 0.109 0.539 0.152 0.452 0.123 0.903 0.268 1.355 0.435 11.333 4.328 22.107 23.488 25.795 49.876-12.169 0.623-21.898 11.461-21.898 24.699 0 12.65 8.879 23.111 20.287 24.561-2.623 12.81-6.897 24.438-12.466 33.55-5.582 9.134-11.974 15.006-18.102 16.804-0.58 0.159-1.153 0.29-1.726 0.377-0.209 0.036-0.425 0.072-0.627 0.116-0.634 0.080-1.288 0.087-1.888 0.094-0.425-0.101-0.849-0.174-1.288-0.232l-0.162-0.029c-0.485-0.065-0.971-0.116-1.443-0.217-0.27-0.065-0.533-0.123-0.802-0.167-6.311-2.030-12.581-8.743-17.61-19.008-4.49-9.149-7.612-20.451-9.169-32.71 8.67-3.545 14.853-12.578 14.853-23.126 0-9.99-5.515-18.602-13.444-22.51v0zM102.175 439.474c-5.596-0.377-10.046-5.386-10.046-11.498 0-6.351 4.807-11.519 10.713-11.519h0.094c0.189 4.313 0.196 8.75-0.007 13.31-0.155 3.262-0.405 6.503-0.755 9.707v0zM33.757 436.625c-0.088-3.451-0.054-6.938 0.108-10.439 0.094-2.139 0.236-4.255 0.418-6.336 1.935 2.081 3.128 4.959 3.128 8.127 0 3.451-1.416 6.539-3.654 8.649v0zM277.298 848.031l13.174-60.395 35.989 32.362-49.163 28.034zM340.248 539.901c-29.018 0-52.621 25.38-52.621 56.582s23.604 56.589 52.621 56.589c29.018 0 52.621-25.388 52.621-56.589s-23.604-56.582-52.621-56.582v0zM340.248 616.825c-10.43 0-18.911-9.127-18.911-20.342s8.481-20.335 18.911-20.335c10.43 0 18.911 9.12 18.911 20.335s-8.481 20.342-18.911 20.342v0zM541.469 613.99v0c-9.311 0.007-16.855 8.119-16.855 18.131 0 0.667-0.142 67.84-12.459 126.133-5.852 27.7-11.185 44.519-14.751 53.965-14.017-4.023-38.011-13.237-56.147-32.412-18.803-19.885-29.854-45.57-29.961-45.824-3.87-9.091-13.868-13.1-22.323-8.968-8.461 4.147-12.21 14.861-8.367 23.967 0.546 1.298 13.612 31.919 37.014 56.669 35.281 37.306 84.713 44.903 86.803 45.215 6.108 0.877 12.169-1.863 15.823-7.184 2.029-2.951 12.769-20.559 24.777-77.402 13.174-62.353 13.295-131.273 13.295-134.18 0.007-10.004-7.538-18.109-16.848-18.109v0zM764.589 814.778c-2.238 0-4.51 0.478-6.695 1.501v0c-0.391 0.174-39.211 17.884-92.918 17.884-54.347 0-100.746-18.073-101.211-18.261-8.731-3.458-18.412 1.363-21.635 10.736-3.216 9.388 1.241 19.791 9.965 23.263 2.104 0.834 52.271 20.501 112.881 20.501 61.103 0 104.535-20.037 106.355-20.886 8.535-4.002 12.432-14.68 8.711-23.858-2.757-6.807-8.953-10.881-15.453-10.881v0z" />
<glyph unicode="&#xe90e;" glyph-name="euro" d="M564.966 960c-18.026 0-35.769-1.342-53.23-3.708-18.22 2.436-35.54 3.708-52.701 3.708-86.21 0-166.824-27.754-235.343-75.741-0.018-0.018-0.053-0.035-0.071-0.053-34.745-24.346-66.348-53.937-94.031-87.746-0.83-0.759-1.448-1.642-2.119-2.542-26.2-32.45-48.728-68.785-66.931-108.085-0.494-0.883-0.9-1.766-1.236-2.737-12.535-27.471-23.005-56.338-31.055-86.422-0.794-1.695-1.148-3.549-1.377-5.491-11.67-45.462-18.044-93.484-18.044-143.183 0-77.736 15.378-151.428 42.761-217.494 0.247-0.742 0.494-1.43 0.847-2.119 16.384-39.089 37.023-75.441 61.193-108.332 0.653-0.9 1.183-1.854 1.995-2.613 24.523-32.909 52.648-62.217 83.65-87.217 0.9-1.006 1.995-1.748 3.107-2.525 72.863-57.732 161.315-91.701 256.653-91.701 17.161 0 34.481 1.271 52.701 3.708 17.461-2.366 35.204-3.708 53.23-3.708 248.249 0 450.207 229.676 450.207 512s-201.958 512-450.207 512zM378.403 913.779c-5.756-3.001-11.458-6.126-17.090-9.393-3.249-1.871-6.515-3.708-9.71-5.667-4.873-2.984-9.64-6.144-14.389-9.34h-33.986c25.812 12.076 52.754 21.592 80.825 27.507-1.924-0.953-3.743-2.119-5.65-3.107zM200.563 147.862h-63.329c-15.572 21.998-29.396 45.639-41.401 70.621h66.878c2.772-6.25 5.614-12.447 8.598-18.556 1.289-2.631 2.631-5.208 3.955-7.804 3.619-7.097 7.38-14.089 11.282-20.974 1.448-2.56 2.842-5.155 4.326-7.68 3.143-5.297 6.409-10.452 9.693-15.607zM87.711 659.862h67.566c-3.090-7.715-6.020-15.519-8.792-23.428-0.759-2.189-1.536-4.361-2.278-6.55-2.542-7.592-4.908-15.254-7.15-22.987h-68.961c5.614 18.202 12.182 35.858 19.615 52.966zM44.138 448c0 11.9 0.636 23.623 1.377 35.31h70.391c-0.018-0.282-0.018-0.565-0.035-0.847-0.653-11.405-1.112-22.863-1.112-34.463 0-5.914 0.212-11.776 0.388-17.655h-70.321c-0.194 5.897-0.689 11.705-0.689 17.655zM117.16 395.034c0.671-7.433 1.536-14.795 2.489-22.14 0.071-0.547 0.106-1.095 0.177-1.642 1.306-9.834 2.895-19.544 4.679-29.184h-69.632c-3.443 17.337-6.162 34.975-7.91 52.966h70.197zM128.106 571.586c-0.459-2.083-0.847-4.202-1.289-6.303-0.477-2.313-0.971-4.626-1.412-6.956-2.154-11.087-4.061-22.246-5.579-33.58-0.071-0.547-0.106-1.095-0.177-1.642-0.194-1.483-0.318-3.001-0.512-4.484h-70.073c2.33 17.973 5.279 35.699 9.322 52.966h69.72zM132.326 306.759c0.547-2.154 1.059-4.343 1.624-6.479 0.212-0.777 0.388-1.589 0.6-2.366 2.913-10.752 6.179-21.327 9.675-31.779 0.742-2.207 1.518-4.378 2.278-6.55 0.653-1.942 1.306-3.884 1.995-5.791h-68.025c-6.691 17.143-12.447 34.834-17.355 52.966h69.208zM190.888 732.531c-1.483-2.525-2.878-5.12-4.326-7.68-3.902-6.886-7.662-13.877-11.282-20.974-1.324-2.595-2.666-5.173-3.955-7.804-0.159-0.3-0.318-0.6-0.459-0.9h-66.189c13.365 25.194 28.76 48.764 45.833 70.621h61.846c-2.154-3.090-4.326-6.162-6.409-9.304-5.208-7.821-10.24-15.801-15.060-23.958zM242.441 854.069h48.781c-4.378-3.831-8.757-7.68-12.994-11.67-3.566-3.354-7.027-6.85-10.487-10.346-3.478-3.496-6.921-7.044-10.311-10.664-3.266-3.496-6.568-6.956-9.746-10.558-2.825-3.178-5.526-6.462-8.263-9.728h-58.297c18.962 19.721 39.424 37.5 61.316 52.966zM164.617 112.552h60.593c1.995-2.613 3.972-5.226 6.020-7.804 5.332-6.691 10.805-13.224 16.437-19.58 3.178-3.602 6.462-7.062 9.746-10.558 3.39-3.619 6.833-7.168 10.311-10.664 1.43-1.43 2.772-2.948 4.22-4.361h-53.107c-19.385 15.872-37.517 33.598-54.219 52.966zM384.053-20.886c-40.483 8.527-78.742 24.17-114.211 45.162h42.708c2.242-1.73 4.555-3.354 6.815-5.049 3.69-2.737 7.362-5.491 11.123-8.121 6.921-4.82 13.965-9.446 21.116-13.842 3.196-1.96 6.462-3.778 9.71-5.667 5.632-3.266 11.335-6.391 17.090-9.393 1.907-0.971 3.725-2.136 5.65-3.090zM564.966-28.69c-14.018 0-27.878 0.83-41.543 2.401l-7.027 0.989c-0.865 0.124-1.73 0.265-2.595 0.371-6.126 0.865-12.217 1.889-18.273 3.054-0.459 0.088-0.918 0.194-1.395 0.282-5.879 1.165-11.705 2.454-17.496 3.884-0.812 0.194-1.607 0.441-2.419 0.636-5.402 1.377-10.787 2.86-16.102 4.484-1.554 0.477-3.072 1.024-4.626 1.518-4.555 1.448-9.11 2.931-13.594 4.555-3.531 1.289-7.027 2.701-10.522 4.096-2.472 0.971-4.979 1.889-7.433 2.931-94.95 40.183-173.692 119.172-221.59 220.142-0.371 0.759-0.689 1.554-1.059 2.313-2.648 5.65-5.208 11.37-7.662 17.161-0.9 2.119-1.73 4.29-2.595 6.426-1.836 4.502-3.637 9.004-5.35 13.577-1.042 2.79-2.030 5.614-3.019 8.422-1.43 4.008-2.825 8.015-4.149 12.076-1.042 3.178-2.030 6.391-3.019 9.604-1.165 3.796-2.295 7.592-3.372 11.423-0.953 3.407-1.871 6.833-2.772 10.275-0.971 3.743-1.907 7.521-2.807 11.299-0.83 3.531-1.642 7.080-2.401 10.628-0.812 3.778-1.571 7.592-2.295 11.405-0.689 3.584-1.377 7.168-1.995 10.787-0.671 3.937-1.271 7.91-1.854 11.9-0.53 3.531-1.059 7.062-1.518 10.611-0.547 4.255-0.971 8.545-1.43 12.835-0.353 3.319-0.724 6.638-1.024 9.975-0.424 4.908-0.706 9.869-0.989 14.83-0.159 2.772-0.388 5.526-0.512 8.316-0.265 7.786-0.459 15.607-0.459 23.481s0.194 15.695 0.512 23.481c0.124 2.79 0.353 5.544 0.512 8.316 0.282 4.961 0.565 9.905 0.989 14.83 0.282 3.337 0.671 6.656 1.024 9.975 0.441 4.29 0.883 8.58 1.43 12.835 0.459 3.549 0.989 7.080 1.518 10.611 0.583 3.972 1.183 7.945 1.854 11.9 0.618 3.619 1.306 7.203 1.995 10.787 0.742 3.814 1.483 7.627 2.295 11.405 0.759 3.566 1.571 7.097 2.401 10.628 0.9 3.778 1.818 7.556 2.807 11.299 0.9 3.443 1.818 6.868 2.772 10.275 1.077 3.831 2.207 7.627 3.372 11.423 0.953 3.213 1.942 6.426 2.984 9.604 1.324 4.061 2.737 8.068 4.149 12.076 0.989 2.807 1.977 5.632 3.019 8.422 1.713 4.573 3.513 9.075 5.35 13.577 0.865 2.136 1.713 4.308 2.595 6.426 2.454 5.791 5.014 11.511 7.662 17.161 0.353 0.777 0.689 1.554 1.059 2.313 47.898 100.988 126.641 179.959 221.59 220.142 2.454 1.024 4.943 1.942 7.433 2.931 3.496 1.395 6.974 2.807 10.522 4.096 4.484 1.624 9.039 3.107 13.594 4.555 1.536 0.494 3.072 1.042 4.626 1.518 5.314 1.624 10.699 3.107 16.102 4.484 0.812 0.212 1.607 0.441 2.419 0.636 5.791 1.43 11.617 2.719 17.496 3.884 0.459 0.088 0.918 0.194 1.395 0.282 6.038 1.165 12.129 2.189 18.273 3.054 0.865 0.124 1.73 0.265 2.595 0.371l7.027 0.989c13.647 1.571 27.507 2.401 41.525 2.401 228.776 0 414.897-213.839 414.897-476.69s-186.121-476.69-414.897-476.69zM693.001 116.895c-9.799-5.032-19.933-9.534-30.12-13.365-9.128-3.425-13.736-13.612-10.293-22.74 2.648-7.080 9.375-11.441 16.525-11.441 2.066 0 4.167 0.371 6.232 1.148 11.441 4.308 22.828 9.357 33.81 14.989 8.669 4.449 12.094 15.095 7.645 23.764-4.467 8.669-15.095 12.129-23.799 7.645zM794.854 200.474c-7.009-8.616-14.477-16.949-22.228-24.788-6.85-6.938-6.78-18.114 0.177-24.964 3.425-3.39 7.91-5.102 12.394-5.102 4.555 0 9.11 1.748 12.57 5.244 8.51 8.633 16.737 17.814 24.47 27.295 6.162 7.574 5.014 18.697-2.56 24.841s-18.679 5.014-24.823-2.525zM564.966 85.645c-10.964 0-22.016 0.653-32.786 1.942-9.94 0.989-18.485-5.773-19.633-15.448s5.756-18.467 15.431-19.633c12.182-1.448 24.647-2.189 37.005-2.189h1.483c9.763 0 16.914 7.91 16.914 17.655s-8.651 17.673-18.414 17.673zM842.699 690.282c-6.833 10.081-14.212 19.95-21.928 29.343-6.215 7.521-17.302 8.598-24.858 2.419-7.521-6.197-8.598-17.32-2.419-24.858 7.027-8.545 13.753-17.532 19.968-26.712 3.407-5.049 8.986-7.751 14.636-7.751 3.407 0 6.85 0.989 9.887 3.037 8.068 5.491 10.187 16.455 4.714 24.523zM881.011 328.245c-9.198 3.090-19.262-1.854-22.369-11.087-3.566-10.558-7.627-21.063-12.058-31.25-3.902-8.934 0.212-19.35 9.145-23.234 2.295-1.006 4.696-1.465 7.027-1.465 6.833 0 13.312 3.972 16.207 10.611 4.82 11.105 9.234 22.563 13.118 34.074 3.143 9.216-1.818 19.226-11.070 22.351zM897.465 466.22c-9.763 0-17.655-8.457-17.655-18.22 0-10.911-0.406-21.822-1.236-32.468-0.759-9.728 6.515-18.22 16.243-18.962 0.459-0.035 0.936-0.053 1.377-0.053 9.145 0 16.861 7.027 17.585 16.296 0.9 11.546 1.342 23.393 1.342 35.204v1.13c0 9.728-7.892 17.073-17.655 17.073zM321.836 689.593c5.12 0 10.205 2.207 13.683 6.479 7.044 8.633 14.53 16.949 22.263 24.735 6.868 6.921 6.833 18.097-0.106 24.964-6.921 6.85-18.079 6.833-24.964-0.106-8.51-8.58-16.772-17.761-24.541-27.26-6.179-7.556-5.049-18.679 2.507-24.841 3.284-2.684 7.256-3.972 11.158-3.972zM429.533 777.498c2.684 0 5.438 0.618 7.998 1.924 9.852 5.014 20.003 9.498 30.173 13.294 9.128 3.407 13.753 13.594 10.346 22.722-3.407 9.145-13.506 13.789-22.722 10.346-11.405-4.273-22.793-9.287-33.827-14.919-8.686-4.414-12.147-15.060-7.715-23.746 3.125-6.109 9.322-9.622 15.748-9.622zM438.166 116.242c-9.746 4.943-19.368 10.522-28.566 16.561-8.157 5.35-19.103 3.037-24.452-5.102-5.332-8.157-3.054-19.103 5.102-24.435 10.293-6.744 21.027-12.959 31.956-18.503 2.56-1.306 5.279-1.907 7.962-1.907 6.444 0 12.659 3.531 15.766 9.657 4.414 8.686 0.953 19.315-7.768 23.729zM250.121 448c0 10.999 0.441 22.175 1.306 33.192 0.759 9.728-6.497 18.22-16.225 18.997-9.622 0.636-18.22-6.497-18.979-16.207-0.936-11.935-1.412-24.046-1.412-35.964v-0.371c0-9.746 7.892-17.461 17.655-17.461s17.655 8.068 17.655 17.814zM262.268 347.93c-2.366 9.463-11.953 15.236-21.398 12.871-9.463-2.348-15.219-11.935-12.871-21.398 2.931-11.758 6.409-23.534 10.328-35.010 2.507-7.345 9.357-11.953 16.702-11.953 1.889 0 3.814 0.318 5.703 0.953 9.216 3.16 14.159 13.188 10.999 22.422-3.584 10.505-6.762 21.31-9.463 32.115zM274.538 633.997c-8.986 3.99-19.35-0.141-23.252-9.075-4.838-11.052-9.287-22.51-13.206-34.057-3.125-9.234 1.836-19.262 11.052-22.404 1.871-0.636 3.796-0.936 5.667-0.936 7.362 0 14.23 4.643 16.719 11.988 3.584 10.593 7.662 21.098 12.111 31.214 3.902 8.934-0.159 19.35-9.092 23.27zM316.063 226.127c-5.473 8.086-16.419 10.205-24.523 4.749-8.068-5.473-10.187-16.437-4.732-24.523 6.921-10.222 14.265-20.109 21.857-29.378 3.496-4.255 8.545-6.462 13.665-6.462 3.937 0 7.892 1.306 11.176 4.008 7.556 6.197 8.633 17.302 2.472 24.858-6.886 8.422-13.594 17.426-19.915 26.748zM867.487 548.776c1.995-8.015 9.198-13.365 17.108-13.365 1.43 0 2.86 0.177 4.308 0.53 9.463 2.383 15.201 11.97 12.835 21.416-2.948 11.741-6.426 23.517-10.364 34.993-3.16 9.216-13.188 14.142-22.44 10.964-9.216-3.16-14.142-13.206-10.982-22.44 3.619-10.522 6.815-21.327 9.534-32.097zM564.966 810.355c10.699 0 21.522-0.636 32.097-1.854 0.706-0.088 1.395-0.124 2.066-0.124 8.845 0 16.472 6.621 17.514 15.607 1.13 9.675-5.809 18.45-15.484 19.58-11.935 1.395-23.623 2.101-36.723 2.101l-0.23-17.655v17.655c-9.763 0-17.284-7.892-17.284-17.655 0.018-9.763 8.28-17.655 18.044-17.655zM691.129 780.058c9.746-4.908 19.368-10.452 28.601-16.472 2.966-1.942 6.303-2.878 9.622-2.878 5.756 0 11.405 2.825 14.813 8.015 5.332 8.157 3.019 19.103-5.155 24.435-10.328 6.744-21.080 12.941-31.991 18.432-8.722 4.396-19.332 0.883-23.711-7.821-4.396-8.704-0.9-19.315 7.821-23.711zM738.41 321.359c-4.29 0-8.422-1.924-12.394-5.897-31.338-32.803-73.357-49.452-124.893-49.452-41.242 0-76.57 11.953-105.013 35.522-25.865 21.451-43.802 49.805-53.389 84.409h141.206c10.593 0 17.426 6.833 17.426 17.408s-6.85 17.426-17.426 17.426h-147.615c-0.794 7.415-1.201 15.784-1.201 25 0 9.41 0.424 18.167 1.254 26.13h159.038c10.593 0 17.426 6.85 17.426 17.426s-6.85 17.408-17.426 17.408h-152.664c9.481 34.357 26.624 62.694 51.041 84.321 26.677 23.623 57.697 35.61 92.178 35.61 34.834 0 67.549-10.646 97.156-31.567 12.182-8.828 23.093-18.538 32.433-28.884v-36.776c0-10.593 6.85-17.426 17.443-17.426 10.575 0 17.408 6.85 17.408 17.426v108.915c0 10.593-6.833 17.426-17.408 17.426-10.611 0-17.443-6.85-17.443-17.426v-23.181c-37.888 30.755-79.819 46.345-124.716 46.345-47.139 0-87.905-15.219-121.15-45.25-31.338-28.337-52.365-65.148-62.535-109.515h-35.328c-10.593 0-17.426-6.833-17.426-17.408s6.833-17.426 17.426-17.426h29.608c-0.777-8.051-1.165-16.808-1.165-26.13 0-9.11 0.371-17.461 1.112-25h-41.013c-10.593 0-17.426-6.85-17.426-17.426s6.833-17.408 17.426-17.408h46.733c10.275-45.197 32.238-82.255 65.377-110.274 34.904-29.537 78.195-44.509 128.671-44.509 58.703 0 108.985 20.145 149.522 59.869 4.52 4.484 5.473 9.022 5.473 12.023 0 5.844-4.096 10.611-7.15 13.665-3.849 3.814-7.874 4.626-10.575 4.626z" />
<glyph unicode="&#xe90f;" d="M1024 730.229v33.543h-144.232v-33.543h55.344v-564.455h-55.344v-33.543h144.232v33.543h-55.344v564.455z" />
<glyph unicode="&#xe910;" d="M6.223 268.755l168.809 381.21c11.769 26.287 33.209 42.205 62.275 42.205h6.226c29.048 0 49.81-15.915 61.567-42.205l168.815-381.21c3.459-7.611 5.54-14.527 5.54-21.449 0-28.365-22.141-51.195-50.509-51.195-24.905 0-41.513 14.527-51.195 36.671l-32.513 76.098h-213.091l-33.901-79.563c-8.996-20.753-26.98-33.206-49.121-33.206-27.684 0-49.124 22.138-49.124 49.813 0 7.611 2.764 15.22 6.223 22.831zM305.799 402.972l-67.113 159.818-67.107-159.818h134.221z" />
<glyph unicode="&#xe911;" d="M529.931 306.808v1.385c0 80.945 61.577 118.306 149.44 118.306 37.364 0 64.349-6.226 90.64-15.223v6.226c0 43.59-26.986 67.8-79.566 67.8-29.057 0-52.58-4.149-72.644-10.378-6.223-2.074-10.378-2.764-15.229-2.764-24.207 0-43.578 18.679-43.578 42.892 0 18.682 11.757 34.594 28.359 40.823 33.209 12.453 69.191 19.371 118.312 19.371 57.419 0 98.934-15.22 125.227-41.51 27.672-27.672 40.125-68.495 40.125-118.309v-168.809c0-28.371-22.831-50.506-51.198-50.506-30.442 0-50.503 21.446-50.503 43.587v0.692c-25.598-28.365-60.89-47.043-112.079-47.043-69.883-0.006-127.305 40.116-127.305 113.458zM771.386 331.024v18.679c-17.986 8.301-41.51 13.838-67.107 13.838-44.975 0-72.644-17.989-72.644-51.195v-1.385c0-28.368 23.523-44.969 57.422-44.969 49.121-0.003 82.33 26.977 82.33 65.033z" />
<glyph unicode="&#xe912;" glyph-name="Password" d="M61.44 755.2c-33.689 0-61.44-27.751-61.44-61.44v-409.6c0-33.689 27.751-61.44 61.44-61.44h515.84c19.313-104.723 111.234-184.32 221.44-184.32 124.176 0 225.28 101.104 225.28 225.28 0 69.849-31.828 132.079-81.92 173.44v256.64c0 33.689-27.751 61.44-61.44 61.44h-819.2zM61.44 714.24h819.2c11.572 0 20.48-8.908 20.48-20.48v-229.76c-30.71 15.72-65.61 24.96-102.4 24.96 0 33.935-27.505 61.44-61.44 61.44s-61.44-27.505-61.44-61.44c0-11.54 3.367-22.192 8.96-31.36-66.609-39.19-111.36-111.241-111.36-193.92h-512c-11.572 0-20.48 8.908-20.48 20.48v409.6c0 11.572 8.908 20.48 20.48 20.48zM204.8 550.4c-33.932 0-61.44-27.508-61.44-61.44s27.508-61.44 61.44-61.44c33.932 0 61.44 27.508 61.44 61.44s-27.508 61.44-61.44 61.44zM471.040 550.4c-33.932 0-61.44-27.508-61.44-61.44s27.508-61.44 61.44-61.44c33.932 0 61.44 27.508 61.44 61.44s-27.508 61.44-61.44 61.44zM798.72 448c102.040 0 184.32-82.28 184.32-184.32s-82.28-184.32-184.32-184.32c-102.040 0-184.32 82.28-184.32 184.32s82.28 184.32 184.32 184.32zM898.56 345.6c-4.774-0.53-8.978-2.63-12.163-5.763l-108.157-108.157-46.72 46.72c-3.767 3.768-8.972 6.098-14.721 6.098-11.497 0-20.817-9.32-20.817-20.817 0-5.749 2.33-10.954 6.098-14.721l61.44-61.44c3.729-3.85 8.945-6.24 14.72-6.24s10.991 2.39 14.715 6.235l122.885 122.885c4.018 3.75 6.523 9.077 6.523 14.989 0 11.312-9.17 20.482-20.482 20.482-1.173 0-2.323-0.099-3.442-0.288z" />
<glyph unicode="&#xe913;" glyph-name="PasswordCheck" d="M61.44 755.2c-33.874 0-61.44-27.566-61.44-61.44v-409.6c0-33.874 27.566-61.44 61.44-61.44h515.84c19.313-104.723 111.234-184.32 221.44-184.32 124.176 0 225.28 101.104 225.28 225.28 0 69.849-31.828 132.079-81.92 173.44v256.64c0 33.874-27.566 61.44-61.44 61.44h-819.2zM204.8 550.4c33.935 0 61.44-27.505 61.44-61.44s-27.505-61.44-61.44-61.44c-33.935 0-61.44 27.505-61.44 61.44s27.505 61.44 61.44 61.44zM471.040 550.4c33.935 0 61.44-27.505 61.44-61.44s-27.505-61.44-61.44-61.44c-33.935 0-61.44 27.505-61.44 61.44s27.505 61.44 61.44 61.44zM737.28 550.4c33.935 0 61.44-27.505 61.44-61.44-5.197 0-10.255-0.288-15.36-0.64-2.548-0.173-5.156-0.383-7.68-0.64-4.718-0.488-9.455-1.142-14.080-1.92-27.583-4.594-53.547-14.479-76.8-28.16-5.55 9.134-8.96 19.871-8.96 31.36 0 33.935 27.505 61.44 61.44 61.44zM798.72 448c102.040 0 184.32-82.28 184.32-184.32s-82.28-184.32-184.32-184.32c-102.040 0-184.32 82.28-184.32 184.32s82.28 184.32 184.32 184.32zM898.56 345.6c-4.774-0.53-8.978-2.63-12.163-5.763l-108.157-108.157-46.72 46.72c-3.767 3.768-8.972 6.098-14.721 6.098-11.497 0-20.817-9.32-20.817-20.817 0-5.749 2.33-10.954 6.098-14.721l61.44-61.44c3.729-3.85 8.945-6.24 14.72-6.24s10.991 2.39 14.715 6.235l122.885 122.885c4.018 3.75 6.523 9.077 6.523 14.989 0 11.312-9.17 20.482-20.482 20.482-1.173 0-2.323-0.099-3.442-0.288z" />
<glyph unicode="&#xe914;" glyph-name="Plus" d="M512 898.56c-248.443 0-450.56-202.117-450.56-450.56s202.117-450.56 450.56-450.56 450.56 202.117 450.56 450.56-202.117 450.56-450.56 450.56zM737.28 427.52h-204.8v-204.8h-40.96v204.8h-204.8v40.96h204.8v204.8h40.96v-204.8h204.8v-40.96z" />
<glyph unicode="&#xe915;" glyph-name="pret" d="M804.632 960h-585.264c-51.534 0-93.462-41.926-93.458-93.456v-837.086c0-51.53 41.926-93.456 93.458-93.456h585.262c51.534 0 93.462 41.926 93.462 93.456v837.086c-0.002 51.53-41.926 93.456-93.46 93.456zM864.196 29.456c0-32.842-26.718-59.562-59.564-59.562h-585.264c-32.842 0-59.564 26.718-59.564 59.562v837.088c0 32.842 26.72 59.562 59.564 59.562h585.264c32.842 0 59.564-26.718 59.564-59.562v-837.088zM790.756 869.612h-557.512c-9.36 0-16.948-7.586-16.948-16.948v-224.3c0-9.362 7.588-16.948 16.948-16.948h557.508c9.362 0 16.948 7.588 16.95 16.948v224.3c0 9.362-7.588 16.948-16.946 16.948zM773.808 645.312h-523.616v190.404h523.614v-190.404zM285.198 540.288h-21.738c-31.566 0-57.248-25.682-57.248-57.248v-21.738c0-31.566 25.682-57.248 57.248-57.248h21.738c31.566 0 57.244 25.682 57.248 57.248v21.738c-0.002 31.566-25.682 57.248-57.248 57.248zM308.55 461.302c0-12.876-10.476-23.352-23.352-23.352h-21.738c-12.876 0-23.352 10.476-23.352 23.352v21.738c0 12.876 10.476 23.352 23.352 23.352h21.738c12.876 0 23.352-10.476 23.352-23.352v-21.738zM443.646 540.288h-21.738c-31.564 0-57.244-25.682-57.244-57.248v-21.738c0-31.566 25.68-57.248 57.244-57.248h21.738c31.566 0 57.244 25.682 57.248 57.248v21.738c-0.002 31.566-25.682 57.248-57.248 57.248zM466.994 461.302c0-12.876-10.476-23.352-23.352-23.352h-21.738c-12.876 0-23.35 10.476-23.35 23.352v21.738c0 12.876 10.474 23.352 23.35 23.352h21.738c12.876 0 23.352-10.476 23.352-23.352v-21.738zM602.092 540.288h-21.738c-31.564 0-57.244-25.682-57.244-57.248v-21.738c0-31.566 25.68-57.248 57.244-57.248h21.738c31.566 0 57.244 25.682 57.244 57.248v21.738c0.002 31.566-25.678 57.248-57.244 57.248zM625.44 461.302c0-12.876-10.474-23.352-23.35-23.352h-21.738c-12.876 0-23.35 10.476-23.35 23.352v21.738c0 12.876 10.474 23.352 23.35 23.352h21.738c12.876 0 23.35-10.476 23.35-23.352v-21.738zM760.54 540.288h-21.738c-31.566 0-57.248-25.682-57.248-57.248v-21.738c0-31.566 25.682-57.248 57.248-57.248h21.738c31.566 0 57.244 25.682 57.248 57.248v21.738c0 31.566-25.682 57.248-57.248 57.248zM783.892 461.302c0-12.876-10.476-23.352-23.352-23.352h-21.738c-12.876 0-23.352 10.476-23.352 23.352v21.738c0 12.876 10.476 23.352 23.352 23.352h21.738c12.876 0 23.352-10.476 23.352-23.352v-21.738zM285.198 369.718h-21.738c-31.566 0-57.248-25.682-57.248-57.248v-21.738c0-31.566 25.682-57.248 57.248-57.248h21.738c31.566 0 57.244 25.682 57.248 57.248v21.738c-0.002 31.566-25.682 57.248-57.248 57.248zM308.55 290.732c0-12.876-10.476-23.352-23.352-23.352h-21.738c-12.876 0-23.352 10.476-23.352 23.352v21.738c0 12.876 10.476 23.352 23.352 23.352h21.738c12.876 0 23.352-10.476 23.352-23.352v-21.738zM443.646 369.718h-21.738c-31.564 0-57.244-25.682-57.244-57.248v-21.738c0-31.566 25.68-57.248 57.244-57.248h21.738c31.566 0 57.244 25.682 57.248 57.248v21.738c-0.002 31.566-25.682 57.248-57.248 57.248zM466.994 290.732c0-12.876-10.476-23.352-23.352-23.352h-21.738c-12.876 0-23.35 10.476-23.35 23.352v21.738c0 12.876 10.474 23.352 23.35 23.352h21.738c12.876 0 23.352-10.476 23.352-23.352v-21.738zM602.092 369.718h-21.738c-31.564 0-57.244-25.682-57.244-57.248v-21.738c0-31.566 25.68-57.248 57.244-57.248h21.738c31.566 0 57.244 25.682 57.244 57.248v21.738c0.002 31.566-25.678 57.248-57.244 57.248zM625.44 290.732c0-12.876-10.474-23.352-23.35-23.352h-21.738c-12.876 0-23.35 10.476-23.35 23.352v21.738c0 12.876 10.474 23.352 23.35 23.352h21.738c12.876 0 23.35-10.476 23.35-23.352v-21.738zM285.198 199.146h-21.738c-31.566 0-57.248-25.68-57.248-57.244v-21.738c0-31.566 25.682-57.248 57.248-57.248h21.738c31.566 0 57.244 25.682 57.248 57.248v21.738c-0.002 31.566-25.682 57.244-57.248 57.244zM308.55 120.164c0-12.876-10.476-23.352-23.352-23.352h-21.738c-12.876 0-23.352 10.476-23.352 23.352v21.738c0 12.874 10.476 23.35 23.352 23.35h21.738c12.876 0 23.352-10.476 23.352-23.35v-21.738zM443.646 199.146h-21.738c-31.564 0-57.244-25.68-57.244-57.244v-21.738c0-31.566 25.68-57.248 57.244-57.248h21.738c31.566 0 57.244 25.682 57.248 57.248v21.738c-0.002 31.566-25.682 57.244-57.248 57.244zM466.994 120.164c0-12.876-10.476-23.352-23.352-23.352h-21.738c-12.876 0-23.35 10.476-23.35 23.352v21.738c0 12.874 10.474 23.35 23.35 23.35h21.738c12.876 0 23.352-10.476 23.352-23.35v-21.738zM602.092 199.146h-21.738c-31.564 0-57.244-25.68-57.244-57.244v-21.738c0-31.566 25.68-57.248 57.244-57.248h21.738c31.566 0 57.244 25.682 57.244 57.248v21.738c0.002 31.566-25.678 57.244-57.244 57.244zM625.44 120.164c0-12.876-10.474-23.352-23.35-23.352h-21.738c-12.876 0-23.35 10.476-23.35 23.352v21.738c0 12.874 10.474 23.35 23.35 23.35h21.738c12.876 0 23.35-10.476 23.35-23.35v-21.738zM760.54 369.72h-21.738c-31.566 0-57.248-25.682-57.248-57.248v-192.31c0-31.566 25.682-57.248 57.248-57.248h21.738c31.566 0 57.244 25.682 57.248 57.248v192.31c0 31.566-25.682 57.248-57.248 57.248zM783.892 120.16c0-12.876-10.476-23.352-23.352-23.352h-21.738c-12.876 0-23.352 10.476-23.352 23.352v192.31c0 12.876 10.476 23.352 23.352 23.352h21.738c12.876 0 23.352-10.476 23.352-23.352v-192.31z" />
<glyph unicode="&#xe916;" glyph-name="Back-Button" horiz-adv-x="614" d="M591.053 862.476l-94.569 97.524-496.485-507.099 496.485-516.901 94.569 97.524-401.916 419.377z" />
<glyph unicode="&#xe917;" glyph-name="search" d="M430.080 898.56c-192.041 0-348.16-156.119-348.16-348.16s156.119-348.16 348.16-348.16c75.971 0 146.234 24.497 203.52 65.92l269.44-268.8 57.6 57.6-266.24 266.88c52.312 60.927 83.84 140.108 83.84 226.56 0 192.041-156.119 348.16-348.16 348.16zM430.080 857.6c169.904 0 307.2-137.296 307.2-307.2s-137.296-307.2-307.2-307.2c-169.904 0-307.2 137.296-307.2 307.2s137.296 307.2 307.2 307.2z" />
<glyph unicode="&#xe918;" glyph-name="Plus-Filled" d="M849.321 793.748c-192.502 192.502-505.716 192.502-698.217 0s-192.502-505.716 0-698.217c192.502-192.502 505.716-192.502 698.217 0s192.502 505.716 0 698.217v0zM658.898 254.217l-158.686 158.686-158.686-158.686-31.737 31.737 158.686 158.686-158.686 158.686 31.737 31.737 158.686-158.686 158.686 158.686 31.737-31.737-158.686-158.686 158.686-158.686-31.737-31.737z" />
<glyph unicode="&#xe919;" glyph-name="doublearrow2" d="M165.486 447.952l351.995 397.95c26.033 26.033 26.033 68.406 0 94.439s-68.406 26.033-94.439 0l-393.039-444.173c-13.282-13.282-19.526-30.684-19.392-48.082-0.134-17.398 6.11-34.934 19.392-48.216l393.035-444.44c26.033-25.903 68.406-25.903 94.439 0s26.033 68.54 0 94.439l-351.99 398.084zM641.806 447.952l351.727 397.95c26.434 26.166 26.434 68.54 0.267 94.573-25.903 26.033-68.54 26.033-94.439 0l-393.035-444.306c-13.282-13.282-19.659-30.684-19.392-48.082-0.134-17.398 6.11-34.934 19.392-48.216l392.905-444.44c26.166-25.903 68.674-25.903 94.439 0 26.166 25.903 26.166 68.54 0 94.439l-351.865 398.084z" />
</font>
</defs>
</svg>
