<svg width="257" height="250" viewBox="0 0 257 250" xmlns="http://www.w3.org/2000/svg"><g fill="none" fill-rule="evenodd"><g stroke="#235182"><g transform="translate(1 24.622)"><path d="M213.372 153.521H92.679c-8.154 0-14.825-6.648-14.825-14.773V15.635C77.854 7.51 84.525.862 92.68.862h120.693c8.153 0 14.824 6.648 14.824 14.773v123.113c0 8.125-6.67 14.773-14.824 14.773zM184.341 153.521s-.617 20.437 2.224 19.821c0 0 8.524-7.387 9.636-19.82h-11.86zM96.755 153.521s-.617 20.437 2.224 19.821c0 0 8.524-7.387 9.636-19.82h-11.86z"/><path d="M102.808 21.914h105.499v116.834H106.391c-.124.123 8.77-87.903-3.583-116.834z"/><path d="M102.808 21.914s-47.19 2.585-94.504 25.361c-3.211 1.477-5.312 4.555-5.806 8.002C.028 75.1-6.149 144.041 21.152 189.962c1.112 1.97 3.583 2.709 5.56 1.847 15.688-6.894 78.197-35.703 79.555-52.938" fill="#FFF"/><ellipse stroke-width=".731" fill="#8EA6BC" cx="12.134" cy="95.412" rx="4.324" ry="4.309"/><ellipse stroke-width=".731" fill="#8EA6BC" cx="12.134" cy="112.648" rx="4.324" ry="4.309"/><ellipse stroke-width=".731" fill="#8EA6BC" cx="12.134" cy="129.76" rx="4.324" ry="4.309"/><path d="M108.738 55.647h99.445M108.738 87.78h99.445M108.738 123.482h99.445"/></g><path d="M5.351 76.207S53.283 113.756 24.623 216.8"/></g><g stroke="#235182"><path stroke-width=".902" d="M132.098 139.979h31.378v8.125h-31.378z"/><path stroke-width=".731" fill="#8EA6BC" d="M144.45 139.979h5.313v8.125h-5.312z"/><path stroke-width=".902" d="M163.476 139.979h31.378v8.125h-31.378z"/><path stroke-width=".731" fill="#8EA6BC" d="M175.83 139.979h5.312v8.125h-5.312z"/><path d="M153.964 134.07h31.378v5.785h-31.378z"/><path fill="#8EA6BC" d="M166.317 134.07h5.312v5.785h-5.312z"/><path stroke-width=".902" d="M113.073 17.359h31.378v8.125h-31.378z"/><path stroke-width=".731" fill="#8EA6BC" d="M125.427 17.359h5.312v8.125h-5.312z"/><path stroke-width=".902" d="M144.451 17.359h31.378v8.125h-31.378z"/><path stroke-width=".731" fill="#8EA6BC" d="M156.804 17.359h5.312v8.125h-5.312z"/><path stroke-width=".902" d="M127.897 8.987h31.378v8.125h-31.378z"/><path stroke-width=".731" fill="#8EA6BC" d="M140.251 8.987h5.312v8.125h-5.312z"/><path stroke-width=".902" d="M168.165.77l25.692 18.014-4.665 6.654L163.5 7.424z"/><path stroke-width=".731" fill="#8EA6BC" d="M178.285 7.868l4.35 3.05-4.666 6.653-4.349-3.05z"/><path stroke-width=".902" d="M146.305 72.144h31.378v8.125h-31.378z"/><path stroke-width=".731" fill="#8EA6BC" d="M158.658 72.144h5.312v8.125h-5.312z"/><g><path stroke-width=".902" d="M149.764 64.018h31.378v8.125h-31.378z"/><path stroke-width=".731" fill="#8EA6BC" d="M162.117 64.018h5.312v8.125h-5.312z"/></g><g><path d="M185.625 53.286l7.192 24.926-6.506 1.877-7.191-24.926z"/><path fill="#8EA6BC" d="M188.443 63.13l1.233 4.272-6.506 1.877-1.233-4.273z"/></g><g><path stroke-width=".902" d="M125.18 218.278h31.378v8.125H125.18z"/><path stroke-width=".731" fill="#8EA6BC" d="M137.534 218.278h5.312v8.125h-5.312z"/></g><g><path stroke-width=".902" d="M156.434 218.278h31.378v8.125h-31.378z"/><path stroke-width=".731" fill="#8EA6BC" d="M168.787 218.278h5.312v8.125h-5.312z"/></g><g><path stroke-width=".902" d="M146.922 210.03H178.3v8.125h-31.378z"/><path stroke-width=".731" fill="#8EA6BC" d="M159.275 210.03h5.312v8.125h-5.312z"/></g><g><path stroke-width=".782" d="M193.495 242.531h31.378v6.156h-31.378z"/><path stroke-width=".634" fill="#8EA6BC" d="M205.848 242.531h5.312v6.156h-5.312z"/></g><g><path stroke-width=".782" d="M224.749 242.531h31.378v6.156h-31.378z"/><path stroke-width=".634" fill="#8EA6BC" d="M237.102 242.531h5.312v6.156h-5.312z"/></g></g><g stroke="#235182"><path d="M78.854 198.703h36.32M117.397 198.703h7.783M168.17 198.703h36.32M200.289 216.678h36.32M189.789 248.687h55.96M209.43 198.703h18.16M139.51 200.673h7.783M103.438 216.678h7.659M200.289 226.527h7.66M134.569 247.087h7.659M241.92 216.678h7.66M78.854 216.678h18.901M67.366 234.775h18.9M105.785 244.624h18.9M152.481 247.087h18.9M105.785 226.527h91.416"/></g><g stroke="#235182" stroke-width=".731" fill="#8EA6BC"><g transform="translate(114.803 130.5)"><ellipse cx="5.312" cy="14.281" rx="4.941" ry="3.324"/><ellipse cx="5.312" cy="10.957" rx="4.941" ry="3.324"/><ellipse cx="6.794" cy="6.894" rx="4.941" ry="3.324"/><ellipse cx="5.312" cy="3.57" rx="4.941" ry="3.324"/></g><g transform="translate(132.098 94.797)"><ellipse cx="4.941" cy="14.158" rx="4.941" ry="3.324"/><ellipse cx="4.941" cy="10.834" rx="4.941" ry="3.324"/><ellipse cx="6.3" cy="6.771" rx="4.941" ry="3.324"/><ellipse cx="4.941" cy="3.447" rx="4.941" ry="3.324"/></g><g transform="translate(141.98 102.183)"><ellipse cx="4.941" cy="6.648" rx="4.941" ry="3.324"/><ellipse cx="4.941" cy="3.324" rx="4.941" ry="3.324"/></g><g transform="translate(150.628 102.183)"><ellipse cx="5.806" cy="6.771" rx="4.941" ry="3.324"/><ellipse cx="5.806" cy="3.447" rx="4.941" ry="3.324"/></g><g transform="translate(145.536 97.259)"><ellipse cx="6.328" cy="6.771" rx="4.941" ry="3.324"/><ellipse cx="4.969" cy="3.447" rx="4.941" ry="3.324"/></g><g transform="translate(117.274 62.787)"><ellipse cx="4.941" cy="14.65" rx="4.941" ry="3.324"/><ellipse cx="4.941" cy="11.326" rx="4.941" ry="3.324"/><ellipse cx="6.3" cy="7.264" rx="4.941" ry="3.324"/><ellipse cx="4.941" cy="3.94" rx="4.941" ry="3.324"/></g><g transform="translate(127.156 70.174)"><ellipse cx="4.941" cy="7.141" rx="4.941" ry="3.324"/><ellipse cx="4.941" cy="3.816" rx="4.941" ry="3.324"/></g><g transform="translate(146.922 90.954)"><ellipse cx="4.941" cy="6.674" rx="4.941" ry="3.324"/><ellipse cx="4.941" cy="3.35" rx="4.941" ry="3.324"/></g><g transform="translate(218.572 232.533)"><ellipse cx="7.289" cy="6.674" rx="4.941" ry="3.324"/><ellipse cx="5.188" cy="3.35" rx="4.941" ry="3.324"/></g><g transform="translate(160.51 102.183)"><ellipse cx="5.806" cy="6.771" rx="4.941" ry="3.324"/><ellipse cx="5.806" cy="3.447" rx="4.941" ry="3.324"/></g><g transform="translate(170.394 102.183)"><ellipse cx="5.436" cy="6.771" rx="4.941" ry="3.324"/><ellipse cx="5.436" cy="3.447" rx="4.941" ry="3.324"/></g><g transform="translate(162.982 91.103)"><ellipse cx="7.906" cy="11.326" rx="4.941" ry="3.324"/><ellipse cx="6.424" cy="8.002" rx="4.941" ry="3.324"/><ellipse cx="5.065" cy="3.816" rx="4.941" ry="3.324"/></g><g transform="translate(227.22 228.84)"><ellipse cx="6.671" cy="10.737" rx="4.941" ry="3.324"/><ellipse cx="5.312" cy="7.413" rx="4.941" ry="3.324"/><ellipse cx="9.512" cy="3.35" rx="4.941" ry="3.324"/></g></g><g font-size="10" font-family="Helvetica" fill="#8EA6BC"><text transform="translate(82.684 9.7)"><tspan x=".412" y="12.305">+</tspan></text><text transform="translate(82.684 9.7)"><tspan x="18.942" y="29.951">+</tspan></text><text transform="translate(82.684 9.7)"><tspan x="105.158" y="32.003">+</tspan></text><text transform="translate(82.684 9.7)"><tspan x="126.7" y="6.082">+</tspan></text><text transform="translate(82.684 9.7)"><tspan x="153.975" y="42.289">+</tspan></text><text transform="translate(82.684 9.7)"><tspan x="153.976" y="77.992">+</tspan></text><text transform="translate(82.684 9.7)"><tspan x="149.034" y="108.945">+</tspan></text><text transform="translate(82.684 9.7)"><tspan x="148.105" y="175.015">+</tspan></text><text transform="translate(82.684 9.7)"><tspan x="67.121" y="187.664">+</tspan></text><text transform="translate(82.684 9.7)"><tspan x="32.531" y="211.322">+</tspan></text><text transform="translate(82.684 9.7)"><tspan x="8.648" y="221.111">+</tspan></text><text transform="translate(82.684 9.7)"><tspan x="39.474" y="150.526">+</tspan></text><text transform="translate(82.684 9.7)"><tspan x="60.893" y="117.286">+</tspan></text><text transform="translate(82.684 9.7)"><tspan x="107.115" y="86.271">+</tspan></text><text transform="translate(82.684 9.7)"><tspan x="62.857" y="48.517">+</tspan></text><text transform="translate(82.684 9.7)"><tspan x="105.158" y="121.875">+</tspan></text><text transform="translate(82.684 9.7)"><tspan x="132.747" y="145.427">+</tspan></text></g></g></svg>