<?xml version="1.0" encoding="utf-8"?>
<!-- Generator: Adobe Illustrator 18.1.1, SVG Export Plug-In . SVG Version: 6.00 Build 0)  -->
<svg version="1.1" id="Cochon" xmlns="http://www.w3.org/2000/svg" xmlns:xlink="http://www.w3.org/1999/xlink" x="0px" y="0px"
	 viewBox="0 0 250 250" enable-background="new 0 0 250 250" xml:space="preserve">
<path fill="none" stroke="#235182" stroke-miterlimit="10" d="M141,193.8c9,19-2.5,19.8-2.5,19.8c-6.2,1.8-7.2-13.5-7.2-13.5
	c-6.2,2-41.5,1.2-41.5,1.2s5.2,17-14,14.5c0,0,6-11.2,1.2-18"/>
<path fill="none" stroke="#235182" stroke-miterlimit="10" d="M37.8,145.8c0,0,21.5-13,26.2-18.5c0,0,14.8-17.5,35-14.2V95.5
	c0,0,20.5,5.5,13.8,20.2l14.4-2c3.1-0.4,6.1-1,9.1-1.6c37.8-7.7,45.9,17.8,47.4,25.4c0.4,1.9,0.8,3.8,1.2,5.7
	c15,63.8-41.7,56-41.7,56"/>
<path fill="#8DA6BC" stroke="#235182" stroke-miterlimit="10" d="M112.5,118.7c-0.6,3.6-2.2,9.4-7.2,12.8c0,0,5.7-21.6-5.3-34.9
	c-0.3-0.3,0.1-0.8,0.4-0.6c4.1,1.5,15.7,6.7,13.2,17.3C113.1,115.1,112.8,116.9,112.5,118.7z"/>
<path fill="#7B90A3" stroke="#235182" stroke-miterlimit="10" d="M32.5,107.2"/>
<path fill="none" stroke="#235182" stroke-miterlimit="10" d="M82.9,114.5v-19c0,0,13.3,4.8,16.1,12.8"/>
<ellipse fill="none" stroke="#235182" stroke-width="1.127" stroke-miterlimit="10" cx="35.7" cy="157.4" rx="5.6" ry="12.5"/>
<path fill="none" stroke="#235182" stroke-width="1.1677" stroke-miterlimit="10" d="M37.8,169.5c0,0,19.8,10,45.2-2.5"/>
<path fill="none" stroke="#235182" stroke-width="1.1677" stroke-miterlimit="10" d="M43.3,171.4c0,0,2.7,33.4,34.7,28.1"/>
<path fill="none" stroke="#8DA6BC" stroke-width="1.1677" stroke-miterlimit="10" d="M78,215.8"/>
<path fill="none" stroke="#8DA6BC" stroke-width="1.1677" stroke-miterlimit="10" d="M65.4,199.6"/>
<path fill="none" stroke="#8DA6BC" stroke-width="1.1677" stroke-miterlimit="10" d="M135.4,212.8"/>
<path fill="none" stroke="#8DA6BC" stroke-width="1.1677" stroke-miterlimit="10" d="M122.3,201"/>
<path fill="none" stroke="#235182" stroke-width="1.1677" stroke-miterlimit="10" d="M64.9,137c0,0-1.2,4,2.5,5.4
	c0.7,0.3,1.5,0.4,2.3,0.3c2.3-0.2,7-1.2,4.5-7"/>
<path fill="none" stroke="#235182" stroke-miterlimit="10" d="M184,139.2c20.7-5.1,24.6,0.8,25,4.9c0.2,2-1.6,3.6-3.6,3.1
	c-7-1.6-6.8-10.2-6.8-10.2C202,126.6,218,125,218,125l-1.7-4.3c-32.5,9.4-24.8,23-19.2,29c2.2,2.4,5.4,3.9,8.6,3.9
	c8.3-0.1,6.6-9.3,6.6-9.3c-4-15.8-29.5-10-29.5-10L184,139.2z"/>
<rect x="122.3" y="48" fill="none" stroke="#235182" stroke-width="0.9839" stroke-miterlimit="10" width="36.2" height="59.3"/>
<rect x="125.2" y="51.6" fill="none" stroke="#235182" stroke-width="0.833" stroke-miterlimit="10" width="29.3" height="52.5"/>
<ellipse fill="#235182" cx="124.8" cy="49.8" rx="3.1" ry="1.8"/>
<ellipse fill="#235182" cx="155.7" cy="49.8" rx="3.1" ry="1.8"/>
<ellipse fill="#235182" cx="155.7" cy="105.6" rx="3.1" ry="1.8"/>
<ellipse fill="#235182" cx="125" cy="105.6" rx="3.1" ry="1.8"/>
<ellipse fill="none" stroke="#235182" stroke-width="1.0567" stroke-miterlimit="10" cx="139.9" cy="76.5" rx="14.7" ry="11.2"/>
<text transform="matrix(4.489659e-11 -1 1 4.489659e-11 145.9998 81.6919)" fill="#235182" font-family="'Helvetica-Light'" font-size="20">$</text>
<line fill="none" stroke="#235182" stroke-miterlimit="10" x1="122.3" y1="12.7" x2="122.3" y2="34"/>
<line fill="none" stroke="#235182" stroke-miterlimit="10" x1="122.3" y1="36.3" x2="122.3" y2="41.9"/>
<line fill="none" stroke="#235182" stroke-miterlimit="10" x1="130.7" y1="12.7" x2="130.7" y2="27.3"/>
<line fill="none" stroke="#235182" stroke-miterlimit="10" x1="130.7" y1="34" x2="130.7" y2="43.6"/>
<line fill="none" stroke="#235182" stroke-miterlimit="10" x1="139.1" y1="12.7" x2="139.1" y2="29"/>
<line fill="none" stroke="#235182" stroke-miterlimit="10" x1="139.1" y1="36.3" x2="139.1" y2="41.9"/>
<line fill="none" stroke="#235182" stroke-miterlimit="10" x1="145.2" y1="36.3" x2="145.2" y2="41.9"/>
<line fill="none" stroke="#235182" stroke-miterlimit="10" x1="155.9" y1="12.7" x2="155.9" y2="34"/>
<line fill="none" stroke="#235182" stroke-miterlimit="10" x1="155.9" y1="36.3" x2="155.9" y2="41.9"/>
<line fill="none" stroke="#235182" stroke-miterlimit="10" x1="146" y1="14.5" x2="146" y2="21.5"/>
<line fill="none" stroke="#235182" stroke-miterlimit="10" x1="146" y1="25.5" x2="146" y2="32.5"/>
<line fill="none" stroke="#235182" stroke-miterlimit="10" x1="24.4" y1="216" x2="90.6" y2="216"/>
<line fill="none" stroke="#235182" stroke-miterlimit="10" x1="24.4" y1="236" x2="72.8" y2="236"/>
<line fill="none" stroke="#235182" stroke-miterlimit="10" x1="77.6" y1="236" x2="88.2" y2="236"/>
<line fill="none" stroke="#235182" stroke-miterlimit="10" x1="86.8" y1="225" x2="137.8" y2="225"/>
<line fill="none" stroke="#235182" stroke-miterlimit="10" x1="172.3" y1="231.7" x2="196" y2="231.7"/>
<line fill="none" stroke="#235182" stroke-miterlimit="10" x1="171" y1="220.3" x2="194.6" y2="220.3"/>
<line fill="none" stroke="#235182" stroke-miterlimit="10" x1="152.6" y1="231.7" x2="164.4" y2="231.7"/>
<line fill="none" stroke="#235182" stroke-miterlimit="10" x1="121" y1="214.3" x2="149.8" y2="214.3"/>
<line fill="none" stroke="#235182" stroke-miterlimit="10" x1="156.1" y1="214.3" x2="168.3" y2="214.3"/>
<text transform="matrix(1 0 0 1 165.9586 53.9392)" fill="none" stroke="#8EA6BC" stroke-width="0.7309" stroke-miterlimit="10" font-family="'HelveticaNeue-UltraLight'" font-size="7">+</text>
<text transform="matrix(1 0 0 1 170.4996 80.6059)" fill="none" stroke="#8EA6BC" stroke-width="0.7309" stroke-miterlimit="10" font-family="'HelveticaNeue-UltraLight'" font-size="7">+</text>
<text transform="matrix(1 0 0 1 178.9633 97.2726)" fill="none" stroke="#8EA6BC" stroke-width="0.7309" stroke-miterlimit="10" font-family="'HelveticaNeue-UltraLight'" font-size="7">+</text>
<text transform="matrix(1 0 0 1 193.63 80.606)" fill="none" stroke="#8EA6BC" stroke-width="0.7309" stroke-miterlimit="10" font-family="'HelveticaNeue-UltraLight'" font-size="7">+</text>
<text transform="matrix(1 0 0 1 229.2966 87.6667)" fill="none" stroke="#8EA6BC" stroke-width="0.7309" stroke-miterlimit="10" font-family="'HelveticaNeue-UltraLight'" font-size="7">+</text>
<text transform="matrix(1 0 0 1 221.9633 107.3723)" fill="none" stroke="#8EA6BC" stroke-width="0.7309" stroke-miterlimit="10" font-family="'HelveticaNeue-UltraLight'" font-size="7">+</text>
<text transform="matrix(1 0 0 1 191.63 124.9998)" fill="none" stroke="#8EA6BC" stroke-width="0.7309" stroke-miterlimit="10" font-family="'HelveticaNeue-UltraLight'" font-size="7">+</text>
<text transform="matrix(1 0 0 1 109.2966 95.4998)" fill="none" stroke="#8EA6BC" stroke-width="0.7309" stroke-miterlimit="10" font-family="'HelveticaNeue-UltraLight'" font-size="7">+</text>
<text transform="matrix(1 0 0 1 64.7285 117.1665)" fill="none" stroke="#8EA6BC" stroke-width="0.7309" stroke-miterlimit="10" font-family="'HelveticaNeue-UltraLight'" font-size="7">+</text>
<text transform="matrix(1 0 0 1 37.75 128.4998)" fill="none" stroke="#8EA6BC" stroke-width="0.7309" stroke-miterlimit="10" font-family="'HelveticaNeue-UltraLight'" font-size="7">+</text>
<text transform="matrix(1 0 0 1 57.5 98.8331)" fill="none" stroke="#8EA6BC" stroke-width="0.7309" stroke-miterlimit="10" font-family="'HelveticaNeue-UltraLight'" font-size="7">+</text>
<text transform="matrix(1 0 0 1 19.8334 157.6251)" fill="none" stroke="#8EA6BC" stroke-width="0.7309" stroke-miterlimit="10" font-family="'HelveticaNeue-UltraLight'" font-size="7">+</text>
<text transform="matrix(1 0 0 1 27.1667 186.0001)" fill="none" stroke="#8EA6BC" stroke-width="0.7309" stroke-miterlimit="10" font-family="'HelveticaNeue-UltraLight'" font-size="7">+</text>
<text transform="matrix(1 0 0 1 48.5862 202.3334)" fill="none" stroke="#8EA6BC" stroke-width="0.7309" stroke-miterlimit="10" font-family="'HelveticaNeue-UltraLight'" font-size="7">+</text>
<text transform="matrix(1 0 0 1 104.9196 220.3338)" fill="none" stroke="#8EA6BC" stroke-width="0.7309" stroke-miterlimit="10" font-family="'HelveticaNeue-UltraLight'" font-size="7">+</text>
<text transform="matrix(1 0 0 1 152.6001 227.6671)" fill="none" stroke="#8EA6BC" stroke-width="0.7309" stroke-miterlimit="10" font-family="'HelveticaNeue-UltraLight'" font-size="7">+</text>
<text transform="matrix(1 0 0 1 184.1566 195.5001)" fill="none" stroke="#8EA6BC" stroke-width="0.7309" stroke-miterlimit="10" font-family="'HelveticaNeue-UltraLight'" font-size="7">+</text>
<text transform="matrix(1 0 0 1 203.4899 204.8756)" fill="none" stroke="#8EA6BC" stroke-width="0.7309" stroke-miterlimit="10" font-family="'HelveticaNeue-UltraLight'" font-size="7">+</text>
<text transform="matrix(1 0 0 1 213.4899 166.9996)" fill="none" stroke="#8EA6BC" stroke-width="0.7309" stroke-miterlimit="10" font-family="'HelveticaNeue-UltraLight'" font-size="7">+</text>
<line fill="none" stroke="#8DA6BC" stroke-width="1.1677" stroke-miterlimit="10" x1="121.7" y1="122.3" x2="158.7" y2="122.3"/>
</svg>
