<?xml version="1.0" encoding="utf-8"?>
<!-- Generator: Adobe Illustrator 18.1.1, SVG Export Plug-In . SVG Version: 6.00 Build 0)  -->
<svg version="1.1" xmlns="http://www.w3.org/2000/svg" xmlns:xlink="http://www.w3.org/1999/xlink" x="0px" y="0px"
	 viewBox="0 0 207.3 131" enable-background="new 0 0 207.3 131" xml:space="preserve">
<g id="Calque_1">
	<line fill="none" stroke="#235182" stroke-miterlimit="10" x1="103.9" y1="41.3" x2="100.6" y2="117.7"/>
	<line fill="none" stroke="#235182" stroke-miterlimit="10" x1="112.7" y1="41.3" x2="109.4" y2="117.7"/>
	<circle fill="none" stroke="#235182" stroke-miterlimit="10" cx="108.3" cy="36.3" r="6.7"/>
	<path fill="none" stroke="#235182" stroke-miterlimit="10" d="M112.7,41.3c0,0,26,15.4,51,38.2l0.8,0.8"/>
	<path fill="none" stroke="#235182" stroke-miterlimit="10" d="M105.5,30.3l0.3-9.6l8.7-6.8h9.1c0.4,0,0.5,0.5,0.2,0.7l-10,8
		l-0.3,9.6l1.6,1.4c0,0,40.7,26.5,48.7,37.5l0.2,1.2"/>
</g>
<g id="Calque_4">
	<ellipse fill="#8DA6BC" cx="177.7" cy="106.9" rx="29.7" ry="8.5"/>
	<ellipse fill="#8DA6BC" cx="48" cy="47.1" rx="29.7" ry="8.5"/>
	<path fill="none" stroke="#235182" stroke-miterlimit="10" d="M102.1,38.6C91.7,30.9,48,10.7,48,10.7v24"/>
	<path fill="none" stroke="#235182" stroke-miterlimit="10" d="M49.4,0"/>
	<polyline fill="none" stroke="#235182" stroke-miterlimit="10" points="105.5,29.1 49.4,0.6 48,10.7 	"/>
	<g>
		<g>
			
				<rect x="22.6" y="41.4" fill="#FFFFFF" stroke="#235182" stroke-width="0.9024" stroke-miterlimit="10" width="25.4" height="6.6"/>
		</g>
		<rect x="32.6" y="41.4" fill="#8DA6BC" stroke="#235182" stroke-miterlimit="10" width="4.3" height="6.6"/>
	</g>
	<g>
		<g>
			
				<rect x="48" y="41.4" fill="#FFFFFF" stroke="#235182" stroke-width="0.9024" stroke-miterlimit="10" width="25.4" height="6.6"/>
		</g>
		<rect x="58" y="41.4" fill="#8DA6BC" stroke="#235182" stroke-miterlimit="10" width="4.3" height="6.6"/>
	</g>
	<g>
		<g>
			
				<rect x="40.3" y="34.7" fill="#FFFFFF" stroke="#235182" stroke-width="0.9024" stroke-miterlimit="10" width="25.4" height="6.6"/>
		</g>
		<rect x="50.3" y="34.7" fill="#8DA6BC" stroke="#235182" stroke-miterlimit="10" width="4.3" height="6.6"/>
	</g>
	<g>
		<g>
			
				<rect x="24.3" y="82.6" transform="matrix(0.8304 0.5571 -0.5571 0.8304 54.1242 -6.0141)" fill="#FFFFFF" stroke="#235182" stroke-width="0.9024" stroke-miterlimit="10" width="25.4" height="6.6"/>
		</g>
		
			<rect x="34.3" y="82.3" transform="matrix(0.8304 0.5571 -0.5571 0.8304 53.888 -5.8214)" fill="#8DA6BC" stroke="#235182" stroke-miterlimit="10" width="4.3" height="6.6"/>
	</g>
	<g>
		<g>
			
				<rect x="28.2" y="104" transform="matrix(0.8304 0.5571 -0.5571 0.8304 66.7126 -4.6123)" fill="#FFFFFF" stroke="#235182" stroke-width="0.9024" stroke-miterlimit="10" width="25.4" height="6.6"/>
		</g>
		
			<rect x="38.3" y="103.7" transform="matrix(0.8304 0.5571 -0.5571 0.8304 66.4764 -4.4195)" fill="#8DA6BC" stroke="#235182" stroke-miterlimit="10" width="4.3" height="6.6"/>
	</g>
	<g>
		<g>
			
				<rect x="13.6" y="110.1" transform="matrix(1 -6.485485e-03 6.485485e-03 1 -0.7349 0.1728)" fill="#FFFFFF" stroke="#235182" stroke-width="0.9024" stroke-miterlimit="10" width="25.4" height="6.6"/>
		</g>
		
			<rect x="23.6" y="110.1" transform="matrix(1 -6.485485e-03 6.485485e-03 1 -0.7349 0.1694)" fill="#8DA6BC" stroke="#235182" stroke-miterlimit="10" width="4.3" height="6.6"/>
	</g>
	<g id="Pièce_12_">
		<ellipse fill="#8EA6BC" stroke="#235182" stroke-width="0.7309" stroke-miterlimit="10" cx="27.4" cy="38.6" rx="4" ry="2.7"/>
		<ellipse fill="#8EA6BC" stroke="#235182" stroke-width="0.7309" stroke-miterlimit="10" cx="27.4" cy="35.9" rx="4" ry="2.7"/>
		<ellipse fill="#8EA6BC" stroke="#235182" stroke-width="0.7309" stroke-miterlimit="10" cx="28.6" cy="32.6" rx="4" ry="2.7"/>
		<ellipse fill="#8EA6BC" stroke="#235182" stroke-width="0.7309" stroke-miterlimit="10" cx="27.4" cy="29.9" rx="4" ry="2.7"/>
	</g>
	<g id="Pièce_9_">
		<ellipse fill="#8EA6BC" stroke="#235182" stroke-width="0.7309" stroke-miterlimit="10" cx="26.8" cy="65" rx="4" ry="2.7"/>
	</g>
	<g id="Pièce_8_">
		
			<ellipse transform="matrix(0.8693 0.4942 -0.4942 0.8693 40.8204 -12.6182)" fill="#8EA6BC" stroke="#235182" stroke-width="0.7309" stroke-miterlimit="10" cx="44.3" cy="70.9" rx="4" ry="2.7"/>
	</g>
	<g id="Pièce_7_">
		
			<ellipse transform="matrix(0.8693 0.4942 -0.4942 0.8693 48.0694 -16.1574)" fill="#8EA6BC" stroke="#235182" stroke-width="0.7309" stroke-miterlimit="10" cx="54.6" cy="82.8" rx="4" ry="2.7"/>
	</g>
	<g id="Pièce_6_">
		
			<ellipse transform="matrix(0.8693 0.4942 -0.4942 0.8693 32.5724 -12.0067)" fill="#8EA6BC" stroke="#235182" stroke-width="0.7309" stroke-miterlimit="10" cx="39" cy="55.6" rx="4" ry="2.7"/>
	</g>
	<g id="Pièce_5_">
		<ellipse fill="#8EA6BC" stroke="#235182" stroke-width="0.7309" stroke-miterlimit="10" cx="35.4" cy="38.5" rx="4" ry="2.7"/>
		<ellipse fill="#8EA6BC" stroke="#235182" stroke-width="0.7309" stroke-miterlimit="10" cx="35.4" cy="35.8" rx="4" ry="2.7"/>
	</g>
</g>
<g id="Notes">
	<g>
		<path fill="#FFFFFF" stroke="#235182" stroke-miterlimit="10" d="M163.8,71.6c0,0,13.1-5.5,27.6,2.6c0,0-2.6,10.8,0,22l-18.1-2.5
			c0,0-4.1,4.6-2.5,10C170.8,103.7,164.5,99.9,163.8,71.6z"/>
		<path fill="#235182" d="M190.9,96.2c0,0,8.2-0.9,7.3,7.2c-0.3,2.3-2,4.2-4.3,4.6c0,0-0.1,0-0.1,0c-0.4,0.1-21.5-0.5-23.6-4.2
			c0,0-1.2-6.1,2.5-10L190.9,96.2z"/>
		<line fill="none" stroke="#235182" stroke-miterlimit="10" x1="170.1" y1="76.4" x2="187.5" y2="77"/>
		<line fill="none" stroke="#235182" stroke-miterlimit="10" x1="169.4" y1="90.1" x2="186.8" y2="90.8"/>
		<line fill="none" stroke="#235182" stroke-miterlimit="10" x1="176.6" y1="81.3" x2="187.5" y2="82"/>
		<line fill="none" stroke="#235182" stroke-miterlimit="10" x1="175.9" y1="86.8" x2="186.8" y2="87.4"/>
		<line fill="none" stroke="#235182" stroke-miterlimit="10" x1="168.4" y1="86.2" x2="172.6" y2="86.2"/>
	</g>
	<line fill="#8EA6BC" stroke="#235182" stroke-miterlimit="10" x1="0" y1="116.7" x2="58.3" y2="117.7"/>
	<line fill="#8EA6BC" stroke="#235182" stroke-miterlimit="10" x1="65.6" y1="123.3" x2="127" y2="124.2"/>
	<line fill="#8EA6BC" stroke="#235182" stroke-miterlimit="10" x1="63.5" y1="117.7" x2="73.4" y2="117.7"/>
	<line fill="#8EA6BC" stroke="#235182" stroke-miterlimit="10" x1="135.3" y1="124.2" x2="145.2" y2="124.2"/>
	<line fill="#8EA6BC" stroke="#235182" stroke-miterlimit="10" x1="84" y1="117.2" x2="123.5" y2="117.7"/>
	<line fill="#8EA6BC" stroke="#235182" stroke-miterlimit="10" x1="132.5" y1="117.7" x2="148" y2="117.7"/>
	
		<text transform="matrix(1 0 0 1 120.9167 79.5004)" fill="none" stroke="#8EA6BC" stroke-width="0.7309" stroke-miterlimit="10" font-family="'HelveticaNeue-UltraLight'" font-size="7">+</text>
	
		<text transform="matrix(1 0 0 1 140.2438 76.9881)" fill="none" stroke="#8EA6BC" stroke-width="0.7309" stroke-miterlimit="10" font-family="'HelveticaNeue-UltraLight'" font-size="7">+</text>
	
		<text transform="matrix(1 0 0 1 130.2438 107.992)" fill="none" stroke="#8EA6BC" stroke-width="0.7309" stroke-miterlimit="10" font-family="'HelveticaNeue-UltraLight'" font-size="7">+</text>
	
		<text transform="matrix(1 0 0 1 150.5771 52.5304)" fill="none" stroke="#8EA6BC" stroke-width="0.7309" stroke-miterlimit="10" font-family="'HelveticaNeue-UltraLight'" font-size="7">+</text>
	
		<text transform="matrix(1 0 0 1 132.5 41.1811)" fill="none" stroke="#8EA6BC" stroke-width="0.7309" stroke-miterlimit="10" font-family="'HelveticaNeue-UltraLight'" font-size="7">+</text>
	
		<text transform="matrix(1 0 0 1 76.7563 64.9999)" fill="none" stroke="#8EA6BC" stroke-width="0.7309" stroke-miterlimit="10" font-family="'HelveticaNeue-UltraLight'" font-size="7">+</text>
	
		<text transform="matrix(1 0 0 1 81.423 80.2608)" fill="none" stroke="#8EA6BC" stroke-width="0.7309" stroke-miterlimit="10" font-family="'HelveticaNeue-UltraLight'" font-size="7">+</text>
	
		<text transform="matrix(1 0 0 1 96.3199 52.5304)" fill="none" stroke="#8EA6BC" stroke-width="0.7309" stroke-miterlimit="10" font-family="'HelveticaNeue-UltraLight'" font-size="7">+</text>
	
		<text transform="matrix(1 0 0 1 84.0001 105.5304)" fill="none" stroke="#8EA6BC" stroke-width="0.7309" stroke-miterlimit="10" font-family="'HelveticaNeue-UltraLight'" font-size="7">+</text>
	
		<text transform="matrix(1 0 0 1 150.5772 89.5669)" fill="none" stroke="#8EA6BC" stroke-width="0.7309" stroke-miterlimit="10" font-family="'HelveticaNeue-UltraLight'" font-size="7">+</text>
	
		<text transform="matrix(1 0 0 1 198.2834 79.5)" fill="none" stroke="#8EA6BC" stroke-width="0.7309" stroke-miterlimit="10" font-family="'HelveticaNeue-UltraLight'" font-size="7">+</text>
	
		<text transform="matrix(1 0 0 1 84.0003 13.8333)" fill="none" stroke="#8EA6BC" stroke-width="0.7309" stroke-miterlimit="10" font-family="'HelveticaNeue-UltraLight'" font-size="7">+</text>
	
		<text transform="matrix(1 0 0 1 29.165 17.1666)" fill="none" stroke="#8EA6BC" stroke-width="0.7309" stroke-miterlimit="10" font-family="'HelveticaNeue-UltraLight'" font-size="7">+</text>
	
		<text transform="matrix(1 0 0 1 81.4229 41.181)" fill="none" stroke="#8EA6BC" stroke-width="0.7309" stroke-miterlimit="10" font-family="'HelveticaNeue-UltraLight'" font-size="7">+</text>
	
		<text transform="matrix(1 0 0 1 54.5926 29.0676)" fill="none" stroke="#8EA6BC" stroke-width="0.7309" stroke-miterlimit="10" font-family="'HelveticaNeue-UltraLight'" font-size="7">+</text>
	
		<text transform="matrix(1 0 0 1 44.2745 62.3071)" fill="none" stroke="#8EA6BC" stroke-width="0.7309" stroke-miterlimit="10" font-family="'HelveticaNeue-UltraLight'" font-size="7">+</text>
	
		<text transform="matrix(1 0 0 1 54.5928 70.8935)" fill="none" stroke="#8EA6BC" stroke-width="0.7309" stroke-miterlimit="10" font-family="'HelveticaNeue-UltraLight'" font-size="7">+</text>
	
		<text transform="matrix(1 0 0 1 15.5928 80.2607)" fill="none" stroke="#8EA6BC" stroke-width="0.7309" stroke-miterlimit="10" font-family="'HelveticaNeue-UltraLight'" font-size="7">+</text>
	
		<text transform="matrix(1 0 0 1 62.3216 95.7214)" fill="none" stroke="#8EA6BC" stroke-width="0.7309" stroke-miterlimit="10" font-family="'HelveticaNeue-UltraLight'" font-size="7">+</text>
</g>
</svg>
