<svg xmlns="http://www.w3.org/2000/svg" viewBox="0 0 50 50" enable-background="new 0 0 50 50" width="50" height="50">
    <path style="text-indent:0;text-align:start;line-height:normal;text-transform:none;block-progression:tb;-inkscape-font-specification:Bitstream Vera Sans" d="M 25 3 C 12.85977 3 3 12.85977 3 25 C 3 37.14023 12.85977 47 25 47 C 37.14023 47 47 37.14023 47 25 C 47 12.85977 37.14023 3 25 3 z M 25 5 C 36.05977 5 45 13.94023 45 25 C 45 36.05977 36.05977 45 25 45 C 13.94023 45 5 36.05977 5 25 C 5 13.94023 13.94023 5 25 5 z M 25 7 C 20.877778 7 17.0407 8.3761258 13.96875 10.8125 L 13.09375 11.5 L 13.90625 12.3125 L 37.6875 36.09375 L 38.5 36.90625 L 39.1875 36.03125 C 41.623874 32.9593 43 29.122222 43 25 C 43 15.060993 34.939007 7 25 7 z M 25 9 C 33.860993 9 41 16.139007 41 25 C 41 28.270104 39.922242 31.232221 38.1875 33.78125 L 16.21875 11.8125 C 18.767779 10.077758 21.729896 9 25 9 z M 11.5 13.09375 L 10.8125 13.96875 C 8.3761258 17.0407 7 20.877778 7 25 C 7 34.939007 15.060993 43 25 43 C 29.122222 43 32.9593 41.623874 36.03125 39.1875 L 36.90625 38.5 L 36.09375 37.6875 L 12.3125 13.90625 L 11.5 13.09375 z M 11.8125 16.21875 L 33.78125 38.1875 C 31.232221 39.922242 28.270104 41 25 41 C 16.139007 41 9 33.860993 9 25 C 9 21.729896 10.077758 18.767779 11.8125 16.21875 z" color="#000" overflow="visible" enable-background="accumulate" font-family="Bitstream Vera Sans"/>
</svg>