<svg xmlns="http://www.w3.org/2000/svg" viewBox="0 0 50 50" width="50" height="50">
    <path style="text-indent:0;text-align:start;line-height:normal;text-transform:none;block-progression:tb;-inkscape-font-specification:Bitstream Vera Sans" d="M 31 4 L 31 6.8125 A 1.0001 1.0001 0 0 0 31 7 L 31 8 L 31 10 L 17 10 C 12.041484 10 8 14.041484 8 19 L 8 35 A 1.0001 1.0001 0 0 0 9 36 L 28 36 L 28 46 L 30 46 L 30 36 L 32 36 L 32 46 L 34 46 L 34 36 L 47 36 A 1.0001 1.0001 0 0 0 48 35 L 48 19 C 48 14.041484 43.958516 10 39 10 L 35 10 L 35 12 L 39 12 C 42.877484 12 46 15.122516 46 19 L 46 34 L 26 34 L 26 19 C 26 16.170743 24.676142 13.651734 22.625 12 L 31 12 L 31 17.28125 C 30.403104 17.627293 30 18.260396 30 19 C 30 20.104569 30.895431 21 32 21 C 33.104569 21 34 20.104569 34 19 C 34 18.260396 33.596896 17.627293 33 17.28125 L 33 8 L 37 8 L 37 4 L 31 4 z M 17 12 C 20.877484 12 24 15.122516 24 19 L 24 34 L 10 34 L 10 19 C 10 15.122516 13.122516 12 17 12 z M 13.71875 20 A 1.0043849 1.0043849 0 0 0 14 22 L 20 22 A 1.0001 1.0001 0 1 0 20 20 L 14 20 A 1.0001 1.0001 0 0 0 13.90625 20 A 1.001098 1.001098 0 0 0 13.8125 20 A 1.0043849 1.0043849 0 0 0 13.71875 20 z"/>
</svg>