<svg xmlns="http://www.w3.org/2000/svg" viewBox="0 0 50 50" width="50" height="50">
    <path d="M 3 10 C 1.3550302 10 0 11.35503 0 13 L 0 33 C 0 34.64497 1.3550302 36 3 36 L 28.1875 36 C 29.130503 41.113407 33.618833 45 39 45 C 45.063287 45 50 40.063287 50 34 C 50 30.589401 48.445891 27.550816 46 25.53125 L 46 13 C 46 11.35503 44.64497 10 43 10 L 3 10 z M 3 12 L 43 12 C 43.56503 12 44 12.43497 44 13 L 44 24.21875 C 42.50049 23.45119 40.796364 23 39 23 C 39 21.343 37.657 20 36 20 C 34.343 20 33 21.343 33 23 C 33 23.563462 33.164426 24.083587 33.4375 24.53125 C 30.185095 26.444819 28 29.962951 28 34 L 3 34 C 2.4349698 34 2 33.56503 2 33 L 2 13 C 2 12.43497 2.4349698 12 3 12 z M 10 20 C 8.3431458 20 7 21.343146 7 23 C 7 24.656854 8.3431458 26 10 26 C 11.656854 26 13 24.656854 13 23 C 13 21.343146 11.656854 20 10 20 z M 23 20 C 21.343146 20 20 21.343146 20 23 C 20 24.656854 21.343146 26 23 26 C 24.656854 26 26 24.656854 26 23 C 26 21.343146 24.656854 20 23 20 z M 39 25 C 43.982407 25 48 29.017593 48 34 C 48 38.982407 43.982407 43 39 43 C 34.017593 43 30 38.982407 30 34 C 30 29.017593 34.017593 25 39 25 z M 43.875 30 A 1.0001 1.0001 0 0 0 43.28125 30.28125 L 38 35.5625 L 35.71875 33.28125 A 1.016466 1.016466 0 1 0 34.28125 34.71875 L 37.28125 37.71875 A 1.0001 1.0001 0 0 0 38.71875 37.71875 L 44.71875 31.71875 A 1.0001 1.0001 0 0 0 43.875 30 z"/>
</svg>