<svg xmlns="http://www.w3.org/2000/svg" viewBox="0 0 50 50" width="50" height="50">
    <path style="text-indent:0;text-align:start;line-height:normal;text-transform:none;block-progression:tb;-inkscape-font-specification:Sans" d="M 3 10 C 1.346 10 0 11.346 0 13 L 0 33 C 0 34.654 1.346 36 3 36 L 28.1875 36 C 29.130503 41.113407 33.618833 45 39 45 C 45.063287 45 50 40.063287 50 34 C 50 30.589401 48.445891 27.550816 46 25.53125 L 46 13 C 46 11.346 44.654 10 43 10 L 3 10 z M 10 20 C 11.657 20 13 21.343 13 23 C 13 24.657 11.657 26 10 26 C 8.343 26 7 24.657 7 23 C 7 21.343 8.343 20 10 20 z M 23 20 C 24.657 20 26 21.343 26 23 C 26 24.657 24.657 26 23 26 C 21.343 26 20 24.657 20 23 C 20 21.343 21.343 20 23 20 z M 36 20 C 37.657 20 39 21.343 39 23 C 38.74625 23 38.499283 23.014064 38.25 23.03125 C 38.125582 23.039689 37.998264 23.049935 37.875 23.0625 C 37.644624 23.086337 37.413353 23.11825 37.1875 23.15625 C 35.840657 23.380587 34.572886 23.86324 33.4375 24.53125 C 33.1665 24.08525 33 23.561 33 23 C 33 21.343 34.343 20 36 20 z M 39 25 C 43.982407 25 48 29.017593 48 34 C 48 38.982407 43.982407 43 39 43 C 34.017593 43 30 38.982407 30 34 C 30 29.017593 34.017593 25 39 25 z M 43.875 30 A 1.0001 1.0001 0 0 0 43.28125 30.28125 L 38 35.5625 L 35.71875 33.28125 A 1.016466 1.016466 0 1 0 34.28125 34.71875 L 37.28125 37.71875 A 1.0001 1.0001 0 0 0 38.71875 37.71875 L 44.71875 31.71875 A 1.0001 1.0001 0 0 0 43.875 30 z" color="#000" overflow="visible" font-family="Sans"/>
</svg>